<?xml version="1.0" encoding="UTF-8"?>
<svg width="1280px" height="421px" viewBox="0 0 1280 421" version="1.1" xmlns="http://www.w3.org/2000/svg" xmlns:xlink="http://www.w3.org/1999/xlink">
    <!-- Generator: Sketch 53.2 (72643) - https://sketchapp.com -->
    <title>patterns</title>
    <desc>Created with Sketch.</desc>
    <defs>
        <rect id="path-1" x="0" y="0" width="1280" height="448"></rect>
    </defs>
    <g id="Assets" stroke="none" stroke-width="1" fill="none" fill-rule="evenodd">
        <g id="Artboard" transform="translate(-261.000000, -232.000000)">
            <g id="patterns" transform="translate(261.000000, 205.000000)">
                <mask id="mask-2" fill="white">
                    <use xlink:href="#path-1"></use>
                </mask>
                <g id="Mask" fill-rule="nonzero"></g>
                <g opacity="0.632533482" mask="url(#mask-2)" id="Yellow-White-Line">
                    <g transform="translate(-177.000000, 28.000000)">
                        <g transform="translate(1381.000000, 0.000000)">
                            <path d="M20.5,184.62 L20.5,191.68" id="Shape" stroke="#FFFFFF" stroke-width="2" stroke-linecap="round" stroke-linejoin="round"></path>
                            <path d="M24.03,188.15 L16.97,188.15" id="Shape" stroke="#FFFFFF" stroke-width="2" stroke-linecap="round" stroke-linejoin="round"></path>
                            <path d="M19.05,79.11 L19.05,86.16" id="Shape" stroke="#FFFFFF" stroke-width="2" stroke-linecap="round" stroke-linejoin="round"></path>
                            <path d="M22.38,82.63 L15.73,82.63" id="Shape" stroke="#FFFFFF" stroke-width="2" stroke-linecap="round" stroke-linejoin="round"></path>
                            <path d="M3.6,3.31 L3.6,10.37" id="Shape" stroke="#FFFFFF" stroke-width="2" stroke-linecap="round" stroke-linejoin="round"></path>
                            <path d="M6.92,6.84 L0.27,6.84" id="Shape" stroke="#FFFFFF" stroke-width="2" stroke-linecap="round" stroke-linejoin="round"></path>
                            <path d="M74.38,38.08 L74.41,45.14" id="Shape" stroke="#FFFFFF" stroke-width="2" stroke-linecap="round" stroke-linejoin="round"></path>
                            <path d="M77.92,41.59 L70.86,41.62" id="Shape" stroke="#FFFFFF" stroke-width="2" stroke-linecap="round" stroke-linejoin="round"></path>
                            <circle id="Oval" stroke="#FFFFFF" stroke-width="2" stroke-linecap="round" stroke-linejoin="round" cx="27.35" cy="226.84" r="12.67"></circle>
                            <circle id="Oval" stroke="#FFFFFF" stroke-width="2" stroke-linecap="round" stroke-linejoin="round" cx="27.35" cy="226.84" r="16.47"></circle>
                            <circle id="Oval" stroke="#FFFFFF" stroke-width="2" stroke-linecap="round" stroke-linejoin="round" cx="27.35" cy="226.84" r="2.96"></circle>
                            <circle id="Oval" stroke="#FFFFFF" stroke-width="2" stroke-linecap="round" stroke-linejoin="round" cx="63.75" cy="211.55" r="10.2"></circle>
                            <path d="M69.88,219.7 L34.13,241.84" id="Shape" stroke="#FFFFFF" stroke-width="2" stroke-linecap="round" stroke-linejoin="round"></path>
                            <path d="M59.92,202.1 L25.07,210.53" id="Shape" stroke="#FFFFFF" stroke-width="2" stroke-linecap="round" stroke-linejoin="round"></path>
                            <circle id="Oval" stroke="#FFFFFF" stroke-width="2" stroke-linecap="round" stroke-linejoin="round" cx="63.75" cy="211.55" r="2.36"></circle>
                            <path d="M68.64,76.9 L69.62,82.96" id="Shape" stroke="#FFFFFF" stroke-width="2" fill="#FFFFFF" fill-rule="nonzero" stroke-linecap="round" stroke-linejoin="round"></path>
                            <polygon id="Shape" stroke="#FFFFFF" stroke-width="2" stroke-linecap="round" points="67.33 95.45 44.66 99.11 45.51 104.39 68.18 100.73 67.76 98.09"></polygon>
                            <path d="M68.18,100.73 L69.4,108.25 C69.4246188,108.413386 69.5134368,108.560187 69.6467394,108.657817 C69.7800421,108.755447 69.9468005,108.795829 70.11,108.77 L76.18,107.77 L82.25,106.77 C82.5863108,106.713833 82.8141533,106.396641 82.76,106.06 L81.55,98.54" id="Shape" stroke="#FFFFFF" stroke-width="2" stroke-linecap="round" stroke-linejoin="round"></path>
                            <path d="M80.7,93.3 L79.49,85.78 C79.4338334,85.4436892 79.1166409,85.2158467 78.78,85.27 L72.71,86.27 L66.63,87.27 C66.295293,87.3357438 66.0709665,87.65244 66.12,87.99 L67.33,95.51" id="Shape" stroke="#FFFFFF" stroke-width="2" stroke-linecap="round" stroke-linejoin="round"></path>
                            <path d="M74.97,80.11 L76.39,88.68" id="Shape" stroke="#FFFFFF" stroke-width="2" fill="#FFFFFF" fill-rule="nonzero" stroke-linecap="round" stroke-linejoin="round"></path>
                            <path d="M77.79,121.75 L74.28,122.32 C72.632732,122.593231 71.1788461,123.552796 70.28,124.96 L70.28,124.96 C68.9875474,126.990672 69.0708802,129.605736 70.49,131.55 L81.89,147.18" id="Shape" stroke="#FFFFFF" stroke-width="2" stroke-linecap="round"></path>
                            <polygon id="Shape" stroke="#FFFFFF" stroke-width="2" stroke-linecap="round" points="31.68 164.13 5.6 159.59 14.93 105.93 47.28 166.84"></polygon>
                            <polygon id="Shape" stroke="#FFFFFF" stroke-width="2" stroke-linecap="round" points="25.21 153.22 17.1 151.81 20 135.14 30.05 154.06"></polygon>
                            <path d="M12.82,118.09 L16.57,118.75" id="Shape" stroke="#FFFFFF" stroke-width="2" stroke-linecap="round"></path>
                            <path d="M10.97,128.68 L14.73,129.34" id="Shape" stroke="#FFFFFF" stroke-width="2" stroke-linecap="round"></path>
                            <path d="M9.13,139.27 L12.89,139.93" id="Shape" stroke="#FFFFFF" stroke-width="2" stroke-linecap="round"></path>
                            <path d="M7.29,149.86 L11.04,150.52" id="Shape" stroke="#FFFFFF" stroke-width="2" stroke-linecap="round"></path>
                            <path d="M45.22,7 C45.8034321,10.0384395 44.4507889,13.1216704 41.82,14.75 C39.5067053,16.0933187 36.6524808,16.1004683 34.3324854,14.7687556 C32.01249,13.437043 30.579186,10.9687869 30.5724853,8.29375555 C30.5657847,5.61872422 31.9867052,3.14331858 34.3,1.8 C36.4024271,0.659209532 38.9236464,0.592722373 41.0832772,1.62111797 C43.2429079,2.64951357 44.7804517,4.64874506 45.22,7 L45.22,7 Z" id="Shape" stroke="#FFFFFF" stroke-width="2" stroke-linecap="round" stroke-linejoin="round"></path>
                            <path d="M23.57,40.8 L33.36,14.32 C34.6934688,15.3307201 36.3269708,15.8658328 38,15.84 L29.78,38.17" id="Shape" stroke="#FFFFFF" stroke-width="2" stroke-linecap="round" stroke-linejoin="round"></path>
                            <path d="M12.71,52.11 L20.5,48.96" id="Shape" stroke="#FFFFFF" stroke-width="2" stroke-linecap="round" stroke-linejoin="round"></path>
                            <circle id="Oval" stroke="#FFFFFF" cx="35.08" cy="7.56" r="1.68"></circle>
                            <path d="M27.06,39.27 C19.8654934,42.1766875 13.1890984,46.2291276 7.29,51.27 L6.95,51.56 L10.39,60.05 L32,51.36 L53.57,42.64 L50.13,34.14 L49.69,34.14 C41.9184416,34.6118838 34.2753473,36.3444987 27.06,39.27 L27.06,39.27 Z" id="Shape" stroke="#FFFFFF" stroke-width="2" stroke-linecap="round"></path>
                        </g>
                        <g transform="translate(206.000000, 254.000000)">
                            <path d="M104.93,22.57 L133.07,50.71" id="Shape" stroke="#FFFFFF" stroke-width="2" stroke-linecap="round" stroke-linejoin="round"></path>
                            <path d="M109.09,18.41 L137.22,46.55" id="Shape" stroke="#FFFFFF" stroke-width="2" stroke-linecap="round" stroke-linejoin="round"></path>
                            <path d="M133.07,18.41 L104.93,46.55" id="Shape" stroke="#FFFFFF" stroke-width="2" stroke-linecap="round" stroke-linejoin="round"></path>
                            <path d="M137.22,22.57 L109.09,50.71" id="Shape" stroke="#FFFFFF" stroke-width="2" stroke-linecap="round" stroke-linejoin="round"></path>
                            <path d="M140.98,31.62 L101.18,31.62" id="Shape" stroke="#FFFFFF" stroke-width="2" stroke-linecap="round" stroke-linejoin="round"></path>
                            <path d="M140.98,37.5 L101.19,37.5" id="Shape" stroke="#FFFFFF" stroke-width="2" stroke-linecap="round" stroke-linejoin="round"></path>
                            <path d="M118.14,14.66 L118.14,54.46" id="Shape" stroke="#FFFFFF" stroke-width="2" stroke-linecap="round" stroke-linejoin="round"></path>
                            <path d="M124.02,14.66 L124.02,54.45" id="Shape" stroke="#FFFFFF" stroke-width="2" stroke-linecap="round" stroke-linejoin="round"></path>
                            <circle id="Oval" stroke="#FFFFFF" stroke-width="2" stroke-linecap="round" stroke-linejoin="round" cx="121.08" cy="34.56" r="26.13"></circle>
                            <circle id="Oval" stroke="#FFFFFF" stroke-width="2" stroke-linecap="round" stroke-linejoin="round" cx="121.08" cy="34.56" r="20.11"></circle>
                            <circle id="Oval" stroke="#FFFFFF" stroke-width="2" fill="#FFFFFF" fill-rule="nonzero" stroke-linecap="round" stroke-linejoin="round" cx="121.08" cy="34.56" r="6.05"></circle>
                            <path d="M19.05,79.11 L19.05,86.16" id="Shape" stroke="#FFFFFF" stroke-width="2" stroke-linecap="round" stroke-linejoin="round"></path>
                            <path d="M22.38,82.63 L15.73,82.63" id="Shape" stroke="#FFFFFF" stroke-width="2" stroke-linecap="round" stroke-linejoin="round"></path>
                            <path d="M3.6,3.31 L3.6,10.37" id="Shape" stroke="#FFFFFF" stroke-width="2" stroke-linecap="round" stroke-linejoin="round"></path>
                            <path d="M6.92,6.84 L0.27,6.84" id="Shape" stroke="#FFFFFF" stroke-width="2" stroke-linecap="round" stroke-linejoin="round"></path>
                            <path d="M74.38,38.08 L74.41,45.14" id="Shape" stroke="#FFFFFF" stroke-width="2" stroke-linecap="round" stroke-linejoin="round"></path>
                            <path d="M77.92,41.59 L70.86,41.62" id="Shape" stroke="#FFFFFF" stroke-width="2" stroke-linecap="round" stroke-linejoin="round"></path>
                            <path d="M172.69,69.07 L172.73,76.13" id="Shape" stroke="#FFFFFF" stroke-width="2" stroke-linecap="round" stroke-linejoin="round"></path>
                            <path d="M176.24,72.59 L169.18,72.62" id="Shape" stroke="#FFFFFF" stroke-width="2" stroke-linecap="round" stroke-linejoin="round"></path>
                            <path d="M116.86,84.15 L116.89,91.21" id="Shape" stroke="#FFFFFF" stroke-width="2" stroke-linecap="round" stroke-linejoin="round"></path>
                            <path d="M120.4,87.67 L113.34,87.7" id="Shape" stroke="#FFFFFF" stroke-width="2" stroke-linecap="round" stroke-linejoin="round"></path>
                            <path d="M238.82,2.94 L238.85,10" id="Shape" stroke="#FFFFFF" stroke-width="2" stroke-linecap="round" stroke-linejoin="round"></path>
                            <path d="M242.37,6.45 L235.31,6.49" id="Shape" stroke="#FFFFFF" stroke-width="2" stroke-linecap="round" stroke-linejoin="round"></path>
                            <circle id="Oval" stroke="#FFFFFF" stroke-width="2" stroke-linecap="round" stroke-linejoin="round" cx="217.63" cy="81.93" r="12.67"></circle>
                            <circle id="Oval" stroke="#FFFFFF" stroke-width="2" stroke-linecap="round" stroke-linejoin="round" cx="217.63" cy="81.93" r="16.47"></circle>
                            <circle id="Oval" stroke="#FFFFFF" stroke-width="2" stroke-linecap="round" stroke-linejoin="round" cx="217.63" cy="81.93" r="2.96"></circle>
                            <circle id="Oval" stroke="#FFFFFF" stroke-width="2" stroke-linecap="round" stroke-linejoin="round" cx="191.62" cy="111.63" r="10.2"></circle>
                            <path d="M182.54,106.99 L204.96,71.41" id="Shape" stroke="#FFFFFF" stroke-width="2" stroke-linecap="round" stroke-linejoin="round"></path>
                            <path d="M199.21,118.44 L226.84,95.59" id="Shape" stroke="#FFFFFF" stroke-width="2" stroke-linecap="round" stroke-linejoin="round"></path>
                            <circle id="Oval" stroke="#FFFFFF" stroke-width="2" stroke-linecap="round" stroke-linejoin="round" cx="191.62" cy="111.63" r="2.36"></circle>
                            <path d="M170.6,160.48 L124.2,154.3 L125.42,145.16 L125.85,145.07 C141.295757,142.078527 157.295832,144.209764 171.42,151.14 L171.42,151.14 C171.659195,151.257994 171.796124,151.515742 171.76,151.78 L170.6,160.48 Z" id="Shape" stroke="#FFFFFF" stroke-width="2" stroke-linecap="round" stroke-linejoin="round"></path>
                            <path d="M123.33,117.46 C123.524726,120.567855 125.617184,123.233154 128.59,124.16 C129.887841,124.5575 131.267544,124.60579 132.59,124.3 C136.480304,123.383927 138.977177,119.588109 138.27793,115.653048 C137.578682,111.717987 133.92695,109.014756 129.959206,109.495032 C125.991463,109.975307 123.09017,113.471749 123.35,117.46 L123.33,117.46 Z" id="Shape" stroke="#FFFFFF" stroke-width="2" stroke-linecap="round" stroke-linejoin="round"></path>
                            <path d="M152.92,145 L136.74,121.64 C135.690237,122.972095 134.220484,123.909636 132.57,124.3 L146.21,144" id="Shape" stroke="#FFFFFF" stroke-width="2" stroke-linecap="round" stroke-linejoin="round"></path>
                            <path d="M166.34,153.3 L157.96,152.18" id="Shape" stroke="#FFFFFF" stroke-width="2" stroke-linecap="round" stroke-linejoin="round"></path>
                            <circle id="Oval" stroke="#FFFFFF" cx="133.36" cy="115.49" r="1.69"></circle>
                            <path d="M172,4.71 L176.96,8.33" id="Shape" stroke="#FFFFFF" stroke-width="2" fill="#FFFFFF" fill-rule="nonzero" stroke-linecap="round" stroke-linejoin="round"></path>
                            <polygon id="Shape" stroke="#FFFFFF" stroke-width="2" stroke-linecap="round" points="184.12 18.83 170.57 37.37 174.88 40.52 188.44 21.98 186.28 20.4"></polygon>
                            <polygon id="Shape" stroke="#FFFFFF" stroke-width="2" stroke-linecap="round" points="196.42 11.05 198.09 8.77 193.77 5.61 192.11 7.89 194.27 9.47"></polygon>
                            <path d="M192.11,7.89 L186,3.4 C185.722743,3.20018604 185.336736,3.25786521 185.13,3.53 L181.5,8.53 L177.87,13.53 C177.772376,13.6636536 177.732244,13.8307923 177.75854,13.9942005 C177.784835,14.1576087 177.875375,14.3037197 178.01,14.4 L184.16,18.9" id="Shape" stroke="#FFFFFF" stroke-width="2" stroke-linecap="round" stroke-linejoin="round"></path>
                            <path d="M188.44,22 L194.59,26.49 C194.86408,26.6887346 195.246906,26.6308656 195.45,26.36 L199.08,21.36 L202.71,16.36 C202.807624,16.2263464 202.847756,16.0592077 202.82146,15.8957995 C202.795165,15.7323913 202.704625,15.5862803 202.57,15.49 L196.42,11" id="Shape" stroke="#FFFFFF" stroke-width="2" stroke-linecap="round" stroke-linejoin="round"></path>
                            <path d="M190.72,11.27 L197.74,16.4" id="Shape" stroke="#FFFFFF" stroke-width="2" fill="#FFFFFF" fill-rule="nonzero" stroke-linecap="round" stroke-linejoin="round"></path>
                            <path d="M178.75,2.54 L185.8,7.64" id="Shape" stroke="#FFFFFF" stroke-width="2" fill="#FFFFFF" fill-rule="nonzero" stroke-linecap="round" stroke-linejoin="round"></path>
                            <path d="M210,30.18 L212.1,27.3 C213.089099,25.9522419 214.605933,25.0901562 216.27,24.93 L216.27,24.93 C218.66761,24.6989685 220.961743,25.9611389 222.05,28.11 L230.8,45.37" id="Shape" stroke="#FFFFFF" stroke-width="2" stroke-linecap="round"></path>
                            <path d="M210.05,30.17 L208,33 C207.011323,34.3522189 206.647451,36.0624138 207,37.7 L207,37.7 C207.514246,40.0526093 209.413228,41.8524795 211.79,42.24 L230.89,45.33" id="Shape" stroke="#FFFFFF" stroke-width="2" stroke-linecap="round"></path>
                            <path d="M220.63,32.84 L224.77,41.02" id="Shape" stroke="#FFFFFF" stroke-width="2" fill="#FFFFFF" fill-rule="nonzero" stroke-linecap="round" stroke-linejoin="round"></path>
                            <path d="M68.64,76.9 L69.62,82.96" id="Shape" stroke="#FFFFFF" stroke-width="2" fill="#FFFFFF" fill-rule="nonzero" stroke-linecap="round" stroke-linejoin="round"></path>
                            <polygon id="Shape" stroke="#FFFFFF" stroke-width="2" stroke-linecap="round" points="67.33 95.45 44.66 99.11 45.51 104.39 68.18 100.73 67.76 98.09"></polygon>
                            <polygon id="Shape" stroke="#FFFFFF" stroke-width="2" stroke-linecap="round" points="81.55 98.58 84.34 98.13 83.49 92.85 80.7 93.3 81.13 95.94"></polygon>
                            <path d="M68.18,100.73 L69.4,108.25 C69.4246188,108.413386 69.5134368,108.560187 69.6467394,108.657817 C69.7800421,108.755447 69.9468005,108.795829 70.11,108.77 L76.18,107.77 L82.25,106.77 C82.5863108,106.713833 82.8141533,106.396641 82.76,106.06 L81.55,98.54" id="Shape" stroke="#FFFFFF" stroke-width="2" stroke-linecap="round" stroke-linejoin="round"></path>
                            <path d="M80.7,93.3 L79.49,85.78 C79.4338334,85.4436892 79.1166409,85.2158467 78.78,85.27 L72.71,86.27 L66.63,87.27 C66.295293,87.3357438 66.0709665,87.65244 66.12,87.99 L67.33,95.51" id="Shape" stroke="#FFFFFF" stroke-width="2" stroke-linecap="round" stroke-linejoin="round"></path>
                            <path d="M77.34,94.72 L78.73,103.31" id="Shape" stroke="#FFFFFF" stroke-width="2" fill="#FFFFFF" fill-rule="nonzero" stroke-linecap="round" stroke-linejoin="round"></path>
                            <path d="M74.97,80.11 L76.39,88.68" id="Shape" stroke="#FFFFFF" stroke-width="2" fill="#FFFFFF" fill-rule="nonzero" stroke-linecap="round" stroke-linejoin="round"></path>
                            <path d="M77.78,121.76 L81.29,121.19 C82.9426613,120.92403 84.6303436,121.375049 85.93,122.43 L85.93,122.43 C87.7929229,123.956553 88.5343122,126.466175 87.8,128.76 L81.89,147.18" id="Shape" stroke="#FFFFFF" stroke-width="2" stroke-linecap="round"></path>
                            <path d="M77.79,121.75 L74.28,122.32 C72.632732,122.593231 71.1788461,123.552796 70.28,124.96 L70.28,124.96 C68.9875474,126.990672 69.0708802,129.605736 70.49,131.55 L81.89,147.18" id="Shape" stroke="#FFFFFF" stroke-width="2" stroke-linecap="round"></path>
                            <path d="M83.43,131.09 L80.63,139.82" id="Shape" stroke="#FFFFFF" stroke-width="2" fill="#FFFFFF" fill-rule="nonzero" stroke-linecap="round" stroke-linejoin="round"></path>
                            <polygon id="Shape" stroke="#FFFFFF" stroke-width="2" stroke-linecap="round" points="31.68 164.13 5.6 159.59 14.93 105.93 47.28 166.84"></polygon>
                            <polygon id="Shape" stroke="#FFFFFF" stroke-width="2" stroke-linecap="round" points="25.21 153.22 17.1 151.81 20 135.14 30.05 154.06"></polygon>
                            <path d="M12.82,118.09 L16.57,118.75" id="Shape" stroke="#FFFFFF" stroke-width="2" stroke-linecap="round"></path>
                            <path d="M10.97,128.68 L14.73,129.34" id="Shape" stroke="#FFFFFF" stroke-width="2" stroke-linecap="round"></path>
                            <path d="M9.13,139.27 L12.89,139.93" id="Shape" stroke="#FFFFFF" stroke-width="2" stroke-linecap="round"></path>
                            <path d="M7.29,149.86 L11.04,150.52" id="Shape" stroke="#FFFFFF" stroke-width="2" stroke-linecap="round"></path>
                            <path d="M235.64,161.2 L217.17,158 C215.464101,157.69923 213.745941,158.46136 212.823928,159.927799 C211.901915,161.394239 211.959663,163.272957 212.97,164.68 L213.1,164.87 C218.627459,172.559353 229.281087,174.432615 237.1,169.09 L237.29,168.96 C238.743895,167.989354 239.459297,166.230539 239.095722,164.520633 C238.732146,162.810727 237.363038,161.495138 235.64,161.2 L235.64,161.2 Z" id="Shape" stroke="#FFFFFF" stroke-width="2" stroke-linecap="round" stroke-linejoin="round"></path>
                            <path d="M221.650058,156.222699 L231.750058,156.222699 C232.683419,156.222699 233.440058,156.979338 233.440058,157.912699 L233.440058,157.912699 C233.440058,158.84606 232.683419,159.602699 231.750058,159.602699 L221.650058,159.602699 C220.716697,159.602699 219.960058,158.84606 219.960058,157.912699 L219.960058,157.912699 C219.960058,156.979338 220.716697,156.222699 221.650058,156.222699 Z" id="Rectangle-path" stroke="#FFFFFF" stroke-width="2" stroke-linecap="round" stroke-linejoin="round" transform="translate(226.700058, 157.912699) rotate(-170.040000) translate(-226.700058, -157.912699) "></path>
                            <path d="M222.232991,152.890465 L232.332991,152.890465 C233.266353,152.890465 234.022991,153.647104 234.022991,154.580465 L234.022991,154.580465 C234.022991,155.513826 233.266353,156.270465 232.332991,156.270465 L222.232991,156.270465 C221.29963,156.270465 220.542991,155.513826 220.542991,154.580465 L220.542991,154.580465 C220.542991,153.647104 221.29963,152.890465 222.232991,152.890465 Z" id="Rectangle-path" stroke="#FFFFFF" stroke-width="2" stroke-linecap="round" stroke-linejoin="round" transform="translate(227.282991, 154.580465) rotate(-170.040000) translate(-227.282991, -154.580465) "></path>
                            <path d="M222.825774,149.55996 L232.925774,149.55996 C233.859135,149.55996 234.615774,150.316599 234.615774,151.24996 L234.615774,151.24996 C234.615774,152.183322 233.859135,152.93996 232.925774,152.93996 L222.825774,152.93996 C221.892413,152.93996 221.135774,152.183322 221.135774,151.24996 L221.135774,151.24996 C221.135774,150.316599 221.892413,149.55996 222.825774,149.55996 Z" id="Rectangle-path" stroke="#FFFFFF" stroke-width="2" stroke-linecap="round" stroke-linejoin="round" transform="translate(227.875774, 151.249960) rotate(-170.040000) translate(-227.875774, -151.249960) "></path>
                            <path d="M223.398707,146.227726 L233.498707,146.227726 C234.432068,146.227726 235.188707,146.984365 235.188707,147.917726 L235.188707,147.917726 C235.188707,148.851088 234.432068,149.607726 233.498707,149.607726 L223.398707,149.607726 C222.465346,149.607726 221.708707,148.851088 221.708707,147.917726 L221.708707,147.917726 C221.708707,146.984365 222.465346,146.227726 223.398707,146.227726 Z" id="Rectangle-path" stroke="#FFFFFF" stroke-width="2" stroke-linecap="round" stroke-linejoin="round" transform="translate(228.448707, 147.917726) rotate(-170.040000) translate(-228.448707, -147.917726) "></path>
                            <path d="M223.99149,142.897222 L234.09149,142.897222 C235.024851,142.897222 235.78149,143.653861 235.78149,144.587222 L235.78149,144.587222 C235.78149,145.520583 235.024851,146.277222 234.09149,146.277222 L223.99149,146.277222 C223.058128,146.277222 222.30149,145.520583 222.30149,144.587222 L222.30149,144.587222 C222.30149,143.653861 223.058128,142.897222 223.99149,142.897222 Z" id="Rectangle-path" stroke="#FFFFFF" stroke-width="2" stroke-linecap="round" stroke-linejoin="round" transform="translate(229.041490, 144.587222) rotate(-170.040000) translate(-229.041490, -144.587222) "></path>
                            <path d="M224.574423,139.554988 L234.674423,139.554988 C235.607784,139.554988 236.364423,140.311627 236.364423,141.244988 L236.364423,141.244988 C236.364423,142.178349 235.607784,142.934988 234.674423,142.934988 L224.574423,142.934988 C223.641062,142.934988 222.884423,142.178349 222.884423,141.244988 L222.884423,141.244988 C222.884423,140.311627 223.641062,139.554988 224.574423,139.554988 Z" id="Rectangle-path" stroke="#FFFFFF" stroke-width="2" stroke-linecap="round" stroke-linejoin="round" transform="translate(229.624423, 141.244988) rotate(-170.040000) translate(-229.624423, -141.244988) "></path>
                            <path d="M225.165476,136.234333 L235.265476,136.234333 C236.198837,136.234333 236.955476,136.990972 236.955476,137.924333 L236.955476,137.924333 C236.955476,138.857694 236.198837,139.614333 235.265476,139.614333 L225.165476,139.614333 C224.232114,139.614333 223.475476,138.857694 223.475476,137.924333 L223.475476,137.924333 C223.475476,136.990972 224.232114,136.234333 225.165476,136.234333 Z" id="Rectangle-path" stroke="#FFFFFF" stroke-width="2" stroke-linecap="round" stroke-linejoin="round" transform="translate(230.215476, 137.924333) rotate(-170.040000) translate(-230.215476, -137.924333) "></path>
                            <path d="M225.738409,132.902099 L235.838409,132.902099 C236.77177,132.902099 237.528409,133.658737 237.528409,134.592099 L237.528409,134.592099 C237.528409,135.52546 236.77177,136.282099 235.838409,136.282099 L225.738409,136.282099 C224.805048,136.282099 224.048409,135.52546 224.048409,134.592099 L224.048409,134.592099 C224.048409,133.658737 224.805048,132.902099 225.738409,132.902099 Z" id="Rectangle-path" stroke="#FFFFFF" stroke-width="2" stroke-linecap="round" stroke-linejoin="round" transform="translate(230.788409, 134.592099) rotate(-170.040000) translate(-230.788409, -134.592099) "></path>
                            <polyline id="Shape" stroke="#FFFFFF" stroke-width="2" stroke-linecap="round" points="220.42 170.7 221.41 165.02 229.24 166.4 228.24 172.08"></polyline>
                            <path d="M45.22,7 C45.8034321,10.0384395 44.4507889,13.1216704 41.82,14.75 C39.5067053,16.0933187 36.6524808,16.1004683 34.3324854,14.7687556 C32.01249,13.437043 30.579186,10.9687869 30.5724853,8.29375555 C30.5657847,5.61872422 31.9867052,3.14331858 34.3,1.8 C36.4024271,0.659209532 38.9236464,0.592722373 41.0832772,1.62111797 C43.2429079,2.64951357 44.7804517,4.64874506 45.22,7 L45.22,7 Z" id="Shape" stroke="#FFFFFF" stroke-width="2" stroke-linecap="round" stroke-linejoin="round"></path>
                            <path d="M23.57,40.8 L33.36,14.32 C34.6934688,15.3307201 36.3269708,15.8658328 38,15.84 L29.78,38.17" id="Shape" stroke="#FFFFFF" stroke-width="2" stroke-linecap="round" stroke-linejoin="round"></path>
                            <path d="M12.71,52.11 L20.5,48.96" id="Shape" stroke="#FFFFFF" stroke-width="2" stroke-linecap="round" stroke-linejoin="round"></path>
                            <circle id="Oval" stroke="#FFFFFF" cx="35.08" cy="7.56" r="1.68"></circle>
                            <path d="M27.06,39.27 C19.8654934,42.1766875 13.1890984,46.2291276 7.29,51.27 L6.95,51.56 L10.39,60.05 L32,51.36 L53.57,42.64 L50.13,34.14 L49.69,34.14 C41.9184416,34.6118838 34.2753473,36.3444987 27.06,39.27 L27.06,39.27 Z" id="Shape" stroke="#FFFFFF" stroke-width="2" stroke-linecap="round"></path>
                        </g>
                        <g transform="translate(0.000000, 10.000000)" stroke-linecap="round">
                            <path d="M180.02,227.24 L180.02,234.3" id="Shape" stroke="#FFFFFF" stroke-width="2" stroke-linejoin="round"></path>
                            <path d="M183.55,230.77 L176.49,230.77" id="Shape" stroke="#FFFFFF" stroke-width="2" stroke-linejoin="round"></path>
                            <path d="M238.82,2.94 L238.85,10" id="Shape" stroke="#FFFFFF" stroke-width="2" stroke-linejoin="round"></path>
                            <path d="M242.37,6.45 L235.31,6.49" id="Shape" stroke="#FFFFFF" stroke-width="2" stroke-linejoin="round"></path>
                            <circle id="Oval" stroke="#FFFFFF" stroke-width="2" stroke-linejoin="round" cx="217.63" cy="81.93" r="12.67"></circle>
                            <circle id="Oval" stroke="#FFFFFF" stroke-width="2" stroke-linejoin="round" cx="217.63" cy="81.93" r="16.47"></circle>
                            <circle id="Oval" stroke="#FFFFFF" stroke-width="2" stroke-linejoin="round" cx="217.63" cy="81.93" r="2.96"></circle>
                            <circle id="Oval" stroke="#FFFFFF" stroke-width="2" stroke-linejoin="round" cx="191.62" cy="111.63" r="10.2"></circle>
                            <path d="M182.54,106.99 L204.96,71.41" id="Shape" stroke="#FFFFFF" stroke-width="2" stroke-linejoin="round"></path>
                            <path d="M199.21,118.44 L226.84,95.59" id="Shape" stroke="#FFFFFF" stroke-width="2" stroke-linejoin="round"></path>
                            <circle id="Oval" stroke="#FFFFFF" stroke-width="2" stroke-linejoin="round" cx="191.62" cy="111.63" r="2.36"></circle>
                            <polygon id="Shape" stroke="#FFFFFF" stroke-width="2" points="184.12 18.83 170.57 37.37 174.88 40.52 188.44 21.98 186.28 20.4"></polygon>
                            <polygon id="Shape" stroke="#FFFFFF" stroke-width="2" points="196.42 11.05 198.09 8.77 193.77 5.61 192.11 7.89 194.27 9.47"></polygon>
                            <path d="M192.11,7.89 L186,3.4 C185.722743,3.20018604 185.336736,3.25786521 185.13,3.53 L181.5,8.53 L177.87,13.53 C177.772376,13.6636536 177.732244,13.8307923 177.75854,13.9942005 C177.784835,14.1576087 177.875375,14.3037197 178.01,14.4 L184.16,18.9" id="Shape" stroke="#FFFFFF" stroke-width="2" stroke-linejoin="round"></path>
                            <path d="M188.44,22 L194.59,26.49 C194.86408,26.6887346 195.246906,26.6308656 195.45,26.36 L199.08,21.36 L202.71,16.36 C202.807624,16.2263464 202.847756,16.0592077 202.82146,15.8957995 C202.795165,15.7323913 202.704625,15.5862803 202.57,15.49 L196.42,11" id="Shape" stroke="#FFFFFF" stroke-width="2" stroke-linejoin="round"></path>
                            <path d="M190.72,11.27 L197.74,16.4" id="Shape" stroke="#FFFFFF" stroke-width="2" fill="#FFFFFF" fill-rule="nonzero" stroke-linejoin="round"></path>
                            <path d="M178.75,2.54 L185.8,7.64" id="Shape" stroke="#FFFFFF" stroke-width="2" fill="#FFFFFF" fill-rule="nonzero" stroke-linejoin="round"></path>
                            <path d="M210,30.18 L212.1,27.3 C213.089099,25.9522419 214.605933,25.0901562 216.27,24.93 L216.27,24.93 C218.66761,24.6989685 220.961743,25.9611389 222.05,28.11 L230.8,45.37" id="Shape" stroke="#FFFFFF" stroke-width="2"></path>
                            <path d="M210.05,30.17 L208,33 C207.011323,34.3522189 206.647451,36.0624138 207,37.7 L207,37.7 C207.514246,40.0526093 209.413228,41.8524795 211.79,42.24 L230.89,45.33" id="Shape" stroke="#FFFFFF" stroke-width="2"></path>
                            <path d="M220.63,32.84 L224.77,41.02" id="Shape" stroke="#FFFFFF" stroke-width="2" fill="#FFFFFF" fill-rule="nonzero" stroke-linejoin="round"></path>
                            <polygon id="Shape" stroke="#FFFFFF" stroke-width="2" points="239.18 223.11 216.66 237.03 188.03 190.7 252.65 214.79"></polygon>
                            <polygon id="Shape" stroke="#FFFFFF" stroke-width="2" points="227.1 219.25 220.1 223.57 211.21 209.18 231.28 216.66"></polygon>
                            <path d="M194.52,201.2 L197.76,199.19" id="Shape" stroke="#FFFFFF" stroke-width="2"></path>
                            <path d="M200.17,210.34 L203.41,208.34" id="Shape" stroke="#FFFFFF" stroke-width="2"></path>
                            <path d="M205.82,219.49 L209.06,217.48" id="Shape" stroke="#FFFFFF" stroke-width="2"></path>
                            <path d="M211.47,228.63 L214.71,226.63" id="Shape" stroke="#FFFFFF" stroke-width="2"></path>
                            <path d="M235.64,161.2 L217.17,158 C215.464101,157.69923 213.745941,158.46136 212.823928,159.927799 C211.901915,161.394239 211.959663,163.272957 212.97,164.68 L213.1,164.87 C218.627459,172.559353 229.281087,174.432615 237.1,169.09 L237.29,168.96 C238.743895,167.989354 239.459297,166.230539 239.095722,164.520633 C238.732146,162.810727 237.363038,161.495138 235.64,161.2 L235.64,161.2 Z" id="Shape" stroke="#FFFFFF" stroke-width="2" stroke-linejoin="round"></path>
                            <path d="M221.650058,156.222699 L231.750058,156.222699 C232.683419,156.222699 233.440058,156.979338 233.440058,157.912699 L233.440058,157.912699 C233.440058,158.84606 232.683419,159.602699 231.750058,159.602699 L221.650058,159.602699 C220.716697,159.602699 219.960058,158.84606 219.960058,157.912699 L219.960058,157.912699 C219.960058,156.979338 220.716697,156.222699 221.650058,156.222699 Z" id="Rectangle-path" stroke="#FFFFFF" stroke-width="2" stroke-linejoin="round" transform="translate(226.700058, 157.912699) rotate(-170.040000) translate(-226.700058, -157.912699) "></path>
                            <path d="M222.232991,152.890465 L232.332991,152.890465 C233.266353,152.890465 234.022991,153.647104 234.022991,154.580465 L234.022991,154.580465 C234.022991,155.513826 233.266353,156.270465 232.332991,156.270465 L222.232991,156.270465 C221.29963,156.270465 220.542991,155.513826 220.542991,154.580465 L220.542991,154.580465 C220.542991,153.647104 221.29963,152.890465 222.232991,152.890465 Z" id="Rectangle-path" stroke="#FFFFFF" stroke-width="2" stroke-linejoin="round" transform="translate(227.282991, 154.580465) rotate(-170.040000) translate(-227.282991, -154.580465) "></path>
                            <path d="M222.825774,149.55996 L232.925774,149.55996 C233.859135,149.55996 234.615774,150.316599 234.615774,151.24996 L234.615774,151.24996 C234.615774,152.183322 233.859135,152.93996 232.925774,152.93996 L222.825774,152.93996 C221.892413,152.93996 221.135774,152.183322 221.135774,151.24996 L221.135774,151.24996 C221.135774,150.316599 221.892413,149.55996 222.825774,149.55996 Z" id="Rectangle-path" stroke="#FFFFFF" stroke-width="2" stroke-linejoin="round" transform="translate(227.875774, 151.249960) rotate(-170.040000) translate(-227.875774, -151.249960) "></path>
                            <path d="M223.398707,146.227726 L233.498707,146.227726 C234.432068,146.227726 235.188707,146.984365 235.188707,147.917726 L235.188707,147.917726 C235.188707,148.851088 234.432068,149.607726 233.498707,149.607726 L223.398707,149.607726 C222.465346,149.607726 221.708707,148.851088 221.708707,147.917726 L221.708707,147.917726 C221.708707,146.984365 222.465346,146.227726 223.398707,146.227726 Z" id="Rectangle-path" stroke="#FFFFFF" stroke-width="2" stroke-linejoin="round" transform="translate(228.448707, 147.917726) rotate(-170.040000) translate(-228.448707, -147.917726) "></path>
                            <path d="M223.99149,142.897222 L234.09149,142.897222 C235.024851,142.897222 235.78149,143.653861 235.78149,144.587222 L235.78149,144.587222 C235.78149,145.520583 235.024851,146.277222 234.09149,146.277222 L223.99149,146.277222 C223.058128,146.277222 222.30149,145.520583 222.30149,144.587222 L222.30149,144.587222 C222.30149,143.653861 223.058128,142.897222 223.99149,142.897222 Z" id="Rectangle-path" stroke="#FFFFFF" stroke-width="2" stroke-linejoin="round" transform="translate(229.041490, 144.587222) rotate(-170.040000) translate(-229.041490, -144.587222) "></path>
                            <path d="M224.574423,139.554988 L234.674423,139.554988 C235.607784,139.554988 236.364423,140.311627 236.364423,141.244988 L236.364423,141.244988 C236.364423,142.178349 235.607784,142.934988 234.674423,142.934988 L224.574423,142.934988 C223.641062,142.934988 222.884423,142.178349 222.884423,141.244988 L222.884423,141.244988 C222.884423,140.311627 223.641062,139.554988 224.574423,139.554988 Z" id="Rectangle-path" stroke="#FFFFFF" stroke-width="2" stroke-linejoin="round" transform="translate(229.624423, 141.244988) rotate(-170.040000) translate(-229.624423, -141.244988) "></path>
                            <path d="M225.165476,136.234333 L235.265476,136.234333 C236.198837,136.234333 236.955476,136.990972 236.955476,137.924333 L236.955476,137.924333 C236.955476,138.857694 236.198837,139.614333 235.265476,139.614333 L225.165476,139.614333 C224.232114,139.614333 223.475476,138.857694 223.475476,137.924333 L223.475476,137.924333 C223.475476,136.990972 224.232114,136.234333 225.165476,136.234333 Z" id="Rectangle-path" stroke="#FFFFFF" stroke-width="2" stroke-linejoin="round" transform="translate(230.215476, 137.924333) rotate(-170.040000) translate(-230.215476, -137.924333) "></path>
                            <path d="M225.738409,132.902099 L235.838409,132.902099 C236.77177,132.902099 237.528409,133.658737 237.528409,134.592099 L237.528409,134.592099 C237.528409,135.52546 236.77177,136.282099 235.838409,136.282099 L225.738409,136.282099 C224.805048,136.282099 224.048409,135.52546 224.048409,134.592099 L224.048409,134.592099 C224.048409,133.658737 224.805048,132.902099 225.738409,132.902099 Z" id="Rectangle-path" stroke="#FFFFFF" stroke-width="2" stroke-linejoin="round" transform="translate(230.788409, 134.592099) rotate(-170.040000) translate(-230.788409, -134.592099) "></path>
                            <polyline id="Shape" stroke="#FFFFFF" stroke-width="2" points="220.42 170.7 221.41 165.02 229.24 166.4 228.24 172.08"></polyline>
                        </g>
                        <g transform="translate(1203.000000, 254.000000)">
                            <path d="M104.93,22.57 L133.07,50.71" id="Shape" stroke="#FFFFFF" stroke-width="2" stroke-linecap="round" stroke-linejoin="round"></path>
                            <path d="M109.09,18.41 L137.22,46.55" id="Shape" stroke="#FFFFFF" stroke-width="2" stroke-linecap="round" stroke-linejoin="round"></path>
                            <path d="M133.07,18.41 L104.93,46.55" id="Shape" stroke="#FFFFFF" stroke-width="2" stroke-linecap="round" stroke-linejoin="round"></path>
                            <path d="M137.22,22.57 L109.09,50.71" id="Shape" stroke="#FFFFFF" stroke-width="2" stroke-linecap="round" stroke-linejoin="round"></path>
                            <path d="M140.98,31.62 L101.18,31.62" id="Shape" stroke="#FFFFFF" stroke-width="2" stroke-linecap="round" stroke-linejoin="round"></path>
                            <path d="M140.98,37.5 L101.19,37.5" id="Shape" stroke="#FFFFFF" stroke-width="2" stroke-linecap="round" stroke-linejoin="round"></path>
                            <path d="M118.14,14.66 L118.14,54.46" id="Shape" stroke="#FFFFFF" stroke-width="2" stroke-linecap="round" stroke-linejoin="round"></path>
                            <path d="M124.02,14.66 L124.02,54.45" id="Shape" stroke="#FFFFFF" stroke-width="2" stroke-linecap="round" stroke-linejoin="round"></path>
                            <circle id="Oval" stroke="#FFFFFF" stroke-width="2" stroke-linecap="round" stroke-linejoin="round" cx="121.08" cy="34.56" r="26.13"></circle>
                            <circle id="Oval" stroke="#FFFFFF" stroke-width="2" stroke-linecap="round" stroke-linejoin="round" cx="121.08" cy="34.56" r="20.11"></circle>
                            <circle id="Oval" stroke="#FFFFFF" stroke-width="2" fill="#FFFFFF" fill-rule="nonzero" stroke-linecap="round" stroke-linejoin="round" cx="121.08" cy="34.56" r="6.05"></circle>
                            <path d="M19.05,79.11 L19.05,86.16" id="Shape" stroke="#FFFFFF" stroke-width="2" stroke-linecap="round" stroke-linejoin="round"></path>
                            <path d="M22.38,82.63 L15.73,82.63" id="Shape" stroke="#FFFFFF" stroke-width="2" stroke-linecap="round" stroke-linejoin="round"></path>
                            <path d="M3.6,3.31 L3.6,10.37" id="Shape" stroke="#FFFFFF" stroke-width="2" stroke-linecap="round" stroke-linejoin="round"></path>
                            <path d="M6.92,6.84 L0.27,6.84" id="Shape" stroke="#FFFFFF" stroke-width="2" stroke-linecap="round" stroke-linejoin="round"></path>
                            <path d="M74.38,38.08 L74.41,45.14" id="Shape" stroke="#FFFFFF" stroke-width="2" stroke-linecap="round" stroke-linejoin="round"></path>
                            <path d="M77.92,41.59 L70.86,41.62" id="Shape" stroke="#FFFFFF" stroke-width="2" stroke-linecap="round" stroke-linejoin="round"></path>
                            <path d="M172.69,69.07 L172.73,76.13" id="Shape" stroke="#FFFFFF" stroke-width="2" stroke-linecap="round" stroke-linejoin="round"></path>
                            <path d="M176.24,72.59 L169.18,72.62" id="Shape" stroke="#FFFFFF" stroke-width="2" stroke-linecap="round" stroke-linejoin="round"></path>
                            <path d="M116.86,84.15 L116.89,91.21" id="Shape" stroke="#FFFFFF" stroke-width="2" stroke-linecap="round" stroke-linejoin="round"></path>
                            <path d="M120.4,87.67 L113.34,87.7" id="Shape" stroke="#FFFFFF" stroke-width="2" stroke-linecap="round" stroke-linejoin="round"></path>
                            <path d="M238.82,2.94 L238.85,10" id="Shape" stroke="#FFFFFF" stroke-width="2" stroke-linecap="round" stroke-linejoin="round"></path>
                            <path d="M242.37,6.45 L235.31,6.49" id="Shape" stroke="#FFFFFF" stroke-width="2" stroke-linecap="round" stroke-linejoin="round"></path>
                            <circle id="Oval" stroke="#FFFFFF" stroke-width="2" stroke-linecap="round" stroke-linejoin="round" cx="217.63" cy="81.93" r="12.67"></circle>
                            <circle id="Oval" stroke="#FFFFFF" stroke-width="2" stroke-linecap="round" stroke-linejoin="round" cx="217.63" cy="81.93" r="16.47"></circle>
                            <circle id="Oval" stroke="#FFFFFF" stroke-width="2" stroke-linecap="round" stroke-linejoin="round" cx="217.63" cy="81.93" r="2.96"></circle>
                            <circle id="Oval" stroke="#FFFFFF" stroke-width="2" stroke-linecap="round" stroke-linejoin="round" cx="191.62" cy="111.63" r="10.2"></circle>
                            <path d="M182.54,106.99 L204.96,71.41" id="Shape" stroke="#FFFFFF" stroke-width="2" stroke-linecap="round" stroke-linejoin="round"></path>
                            <path d="M199.21,118.44 L226.84,95.59" id="Shape" stroke="#FFFFFF" stroke-width="2" stroke-linecap="round" stroke-linejoin="round"></path>
                            <circle id="Oval" stroke="#FFFFFF" stroke-width="2" stroke-linecap="round" stroke-linejoin="round" cx="191.62" cy="111.63" r="2.36"></circle>
                            <path d="M170.6,160.48 L124.2,154.3 L125.42,145.16 L125.85,145.07 C141.295757,142.078527 157.295832,144.209764 171.42,151.14 L171.42,151.14 C171.659195,151.257994 171.796124,151.515742 171.76,151.78 L170.6,160.48 Z" id="Shape" stroke="#FFFFFF" stroke-width="2" stroke-linecap="round" stroke-linejoin="round"></path>
                            <path d="M123.33,117.46 C123.524726,120.567855 125.617184,123.233154 128.59,124.16 C129.887841,124.5575 131.267544,124.60579 132.59,124.3 C136.480304,123.383927 138.977177,119.588109 138.27793,115.653048 C137.578682,111.717987 133.92695,109.014756 129.959206,109.495032 C125.991463,109.975307 123.09017,113.471749 123.35,117.46 L123.33,117.46 Z" id="Shape" stroke="#FFFFFF" stroke-width="2" stroke-linecap="round" stroke-linejoin="round"></path>
                            <path d="M152.92,145 L136.74,121.64 C135.690237,122.972095 134.220484,123.909636 132.57,124.3 L146.21,144" id="Shape" stroke="#FFFFFF" stroke-width="2" stroke-linecap="round" stroke-linejoin="round"></path>
                            <path d="M166.34,153.3 L157.96,152.18" id="Shape" stroke="#FFFFFF" stroke-width="2" stroke-linecap="round" stroke-linejoin="round"></path>
                            <circle id="Oval" stroke="#FFFFFF" cx="133.36" cy="115.49" r="1.69"></circle>
                            <path d="M172,4.71 L176.96,8.33" id="Shape" stroke="#FFFFFF" stroke-width="2" fill="#FFFFFF" fill-rule="nonzero" stroke-linecap="round" stroke-linejoin="round"></path>
                            <polygon id="Shape" stroke="#FFFFFF" stroke-width="2" stroke-linecap="round" points="184.12 18.83 170.57 37.37 174.88 40.52 188.44 21.98 186.28 20.4"></polygon>
                            <polygon id="Shape" stroke="#FFFFFF" stroke-width="2" stroke-linecap="round" points="196.42 11.05 198.09 8.77 193.77 5.61 192.11 7.89 194.27 9.47"></polygon>
                            <path d="M192.11,7.89 L186,3.4 C185.722743,3.20018604 185.336736,3.25786521 185.13,3.53 L181.5,8.53 L177.87,13.53 C177.772376,13.6636536 177.732244,13.8307923 177.75854,13.9942005 C177.784835,14.1576087 177.875375,14.3037197 178.01,14.4 L184.16,18.9" id="Shape" stroke="#FFFFFF" stroke-width="2" stroke-linecap="round" stroke-linejoin="round"></path>
                            <path d="M188.44,22 L194.59,26.49 C194.86408,26.6887346 195.246906,26.6308656 195.45,26.36 L199.08,21.36 L202.71,16.36 C202.807624,16.2263464 202.847756,16.0592077 202.82146,15.8957995 C202.795165,15.7323913 202.704625,15.5862803 202.57,15.49 L196.42,11" id="Shape" stroke="#FFFFFF" stroke-width="2" stroke-linecap="round" stroke-linejoin="round"></path>
                            <path d="M190.72,11.27 L197.74,16.4" id="Shape" stroke="#FFFFFF" stroke-width="2" fill="#FFFFFF" fill-rule="nonzero" stroke-linecap="round" stroke-linejoin="round"></path>
                            <path d="M178.75,2.54 L185.8,7.64" id="Shape" stroke="#FFFFFF" stroke-width="2" fill="#FFFFFF" fill-rule="nonzero" stroke-linecap="round" stroke-linejoin="round"></path>
                            <path d="M210,30.18 L212.1,27.3 C213.089099,25.9522419 214.605933,25.0901562 216.27,24.93 L216.27,24.93 C218.66761,24.6989685 220.961743,25.9611389 222.05,28.11 L230.8,45.37" id="Shape" stroke="#FFFFFF" stroke-width="2" stroke-linecap="round"></path>
                            <path d="M210.05,30.17 L208,33 C207.011323,34.3522189 206.647451,36.0624138 207,37.7 L207,37.7 C207.514246,40.0526093 209.413228,41.8524795 211.79,42.24 L230.89,45.33" id="Shape" stroke="#FFFFFF" stroke-width="2" stroke-linecap="round"></path>
                            <path d="M220.63,32.84 L224.77,41.02" id="Shape" stroke="#FFFFFF" stroke-width="2" fill="#FFFFFF" fill-rule="nonzero" stroke-linecap="round" stroke-linejoin="round"></path>
                            <path d="M68.64,76.9 L69.62,82.96" id="Shape" stroke="#FFFFFF" stroke-width="2" fill="#FFFFFF" fill-rule="nonzero" stroke-linecap="round" stroke-linejoin="round"></path>
                            <polygon id="Shape" stroke="#FFFFFF" stroke-width="2" stroke-linecap="round" points="67.33 95.45 44.66 99.11 45.51 104.39 68.18 100.73 67.76 98.09"></polygon>
                            <polygon id="Shape" stroke="#FFFFFF" stroke-width="2" stroke-linecap="round" points="81.55 98.58 84.34 98.13 83.49 92.85 80.7 93.3 81.13 95.94"></polygon>
                            <path d="M68.18,100.73 L69.4,108.25 C69.4246188,108.413386 69.5134368,108.560187 69.6467394,108.657817 C69.7800421,108.755447 69.9468005,108.795829 70.11,108.77 L76.18,107.77 L82.25,106.77 C82.5863108,106.713833 82.8141533,106.396641 82.76,106.06 L81.55,98.54" id="Shape" stroke="#FFFFFF" stroke-width="2" stroke-linecap="round" stroke-linejoin="round"></path>
                            <path d="M80.7,93.3 L79.49,85.78 C79.4338334,85.4436892 79.1166409,85.2158467 78.78,85.27 L72.71,86.27 L66.63,87.27 C66.295293,87.3357438 66.0709665,87.65244 66.12,87.99 L67.33,95.51" id="Shape" stroke="#FFFFFF" stroke-width="2" stroke-linecap="round" stroke-linejoin="round"></path>
                            <path d="M77.34,94.72 L78.73,103.31" id="Shape" stroke="#FFFFFF" stroke-width="2" fill="#FFFFFF" fill-rule="nonzero" stroke-linecap="round" stroke-linejoin="round"></path>
                            <path d="M74.97,80.11 L76.39,88.68" id="Shape" stroke="#FFFFFF" stroke-width="2" fill="#FFFFFF" fill-rule="nonzero" stroke-linecap="round" stroke-linejoin="round"></path>
                            <path d="M77.78,121.76 L81.29,121.19 C82.9426613,120.92403 84.6303436,121.375049 85.93,122.43 L85.93,122.43 C87.7929229,123.956553 88.5343122,126.466175 87.8,128.76 L81.89,147.18" id="Shape" stroke="#FFFFFF" stroke-width="2" stroke-linecap="round"></path>
                            <path d="M77.79,121.75 L74.28,122.32 C72.632732,122.593231 71.1788461,123.552796 70.28,124.96 L70.28,124.96 C68.9875474,126.990672 69.0708802,129.605736 70.49,131.55 L81.89,147.18" id="Shape" stroke="#FFFFFF" stroke-width="2" stroke-linecap="round"></path>
                            <path d="M83.43,131.09 L80.63,139.82" id="Shape" stroke="#FFFFFF" stroke-width="2" fill="#FFFFFF" fill-rule="nonzero" stroke-linecap="round" stroke-linejoin="round"></path>
                            <polygon id="Shape" stroke="#FFFFFF" stroke-width="2" stroke-linecap="round" points="31.68 164.13 5.6 159.59 14.93 105.93 47.28 166.84"></polygon>
                            <polygon id="Shape" stroke="#FFFFFF" stroke-width="2" stroke-linecap="round" points="25.21 153.22 17.1 151.81 20 135.14 30.05 154.06"></polygon>
                            <path d="M12.82,118.09 L16.57,118.75" id="Shape" stroke="#FFFFFF" stroke-width="2" stroke-linecap="round"></path>
                            <path d="M10.97,128.68 L14.73,129.34" id="Shape" stroke="#FFFFFF" stroke-width="2" stroke-linecap="round"></path>
                            <path d="M9.13,139.27 L12.89,139.93" id="Shape" stroke="#FFFFFF" stroke-width="2" stroke-linecap="round"></path>
                            <path d="M7.29,149.86 L11.04,150.52" id="Shape" stroke="#FFFFFF" stroke-width="2" stroke-linecap="round"></path>
                            <path d="M235.64,161.2 L217.17,158 C215.464101,157.69923 213.745941,158.46136 212.823928,159.927799 C211.901915,161.394239 211.959663,163.272957 212.97,164.68 L213.1,164.87 C218.627459,172.559353 229.281087,174.432615 237.1,169.09 L237.29,168.96 C238.743895,167.989354 239.459297,166.230539 239.095722,164.520633 C238.732146,162.810727 237.363038,161.495138 235.64,161.2 L235.64,161.2 Z" id="Shape" stroke="#FFFFFF" stroke-width="2" stroke-linecap="round" stroke-linejoin="round"></path>
                            <path d="M221.650058,156.222699 L231.750058,156.222699 C232.683419,156.222699 233.440058,156.979338 233.440058,157.912699 L233.440058,157.912699 C233.440058,158.84606 232.683419,159.602699 231.750058,159.602699 L221.650058,159.602699 C220.716697,159.602699 219.960058,158.84606 219.960058,157.912699 L219.960058,157.912699 C219.960058,156.979338 220.716697,156.222699 221.650058,156.222699 Z" id="Rectangle-path" stroke="#FFFFFF" stroke-width="2" stroke-linecap="round" stroke-linejoin="round" transform="translate(226.700058, 157.912699) rotate(-170.040000) translate(-226.700058, -157.912699) "></path>
                            <path d="M222.232991,152.890465 L232.332991,152.890465 C233.266353,152.890465 234.022991,153.647104 234.022991,154.580465 L234.022991,154.580465 C234.022991,155.513826 233.266353,156.270465 232.332991,156.270465 L222.232991,156.270465 C221.29963,156.270465 220.542991,155.513826 220.542991,154.580465 L220.542991,154.580465 C220.542991,153.647104 221.29963,152.890465 222.232991,152.890465 Z" id="Rectangle-path" stroke="#FFFFFF" stroke-width="2" stroke-linecap="round" stroke-linejoin="round" transform="translate(227.282991, 154.580465) rotate(-170.040000) translate(-227.282991, -154.580465) "></path>
                            <path d="M222.825774,149.55996 L232.925774,149.55996 C233.859135,149.55996 234.615774,150.316599 234.615774,151.24996 L234.615774,151.24996 C234.615774,152.183322 233.859135,152.93996 232.925774,152.93996 L222.825774,152.93996 C221.892413,152.93996 221.135774,152.183322 221.135774,151.24996 L221.135774,151.24996 C221.135774,150.316599 221.892413,149.55996 222.825774,149.55996 Z" id="Rectangle-path" stroke="#FFFFFF" stroke-width="2" stroke-linecap="round" stroke-linejoin="round" transform="translate(227.875774, 151.249960) rotate(-170.040000) translate(-227.875774, -151.249960) "></path>
                            <path d="M223.398707,146.227726 L233.498707,146.227726 C234.432068,146.227726 235.188707,146.984365 235.188707,147.917726 L235.188707,147.917726 C235.188707,148.851088 234.432068,149.607726 233.498707,149.607726 L223.398707,149.607726 C222.465346,149.607726 221.708707,148.851088 221.708707,147.917726 L221.708707,147.917726 C221.708707,146.984365 222.465346,146.227726 223.398707,146.227726 Z" id="Rectangle-path" stroke="#FFFFFF" stroke-width="2" stroke-linecap="round" stroke-linejoin="round" transform="translate(228.448707, 147.917726) rotate(-170.040000) translate(-228.448707, -147.917726) "></path>
                            <path d="M223.99149,142.897222 L234.09149,142.897222 C235.024851,142.897222 235.78149,143.653861 235.78149,144.587222 L235.78149,144.587222 C235.78149,145.520583 235.024851,146.277222 234.09149,146.277222 L223.99149,146.277222 C223.058128,146.277222 222.30149,145.520583 222.30149,144.587222 L222.30149,144.587222 C222.30149,143.653861 223.058128,142.897222 223.99149,142.897222 Z" id="Rectangle-path" stroke="#FFFFFF" stroke-width="2" stroke-linecap="round" stroke-linejoin="round" transform="translate(229.041490, 144.587222) rotate(-170.040000) translate(-229.041490, -144.587222) "></path>
                            <path d="M224.574423,139.554988 L234.674423,139.554988 C235.607784,139.554988 236.364423,140.311627 236.364423,141.244988 L236.364423,141.244988 C236.364423,142.178349 235.607784,142.934988 234.674423,142.934988 L224.574423,142.934988 C223.641062,142.934988 222.884423,142.178349 222.884423,141.244988 L222.884423,141.244988 C222.884423,140.311627 223.641062,139.554988 224.574423,139.554988 Z" id="Rectangle-path" stroke="#FFFFFF" stroke-width="2" stroke-linecap="round" stroke-linejoin="round" transform="translate(229.624423, 141.244988) rotate(-170.040000) translate(-229.624423, -141.244988) "></path>
                            <path d="M225.165476,136.234333 L235.265476,136.234333 C236.198837,136.234333 236.955476,136.990972 236.955476,137.924333 L236.955476,137.924333 C236.955476,138.857694 236.198837,139.614333 235.265476,139.614333 L225.165476,139.614333 C224.232114,139.614333 223.475476,138.857694 223.475476,137.924333 L223.475476,137.924333 C223.475476,136.990972 224.232114,136.234333 225.165476,136.234333 Z" id="Rectangle-path" stroke="#FFFFFF" stroke-width="2" stroke-linecap="round" stroke-linejoin="round" transform="translate(230.215476, 137.924333) rotate(-170.040000) translate(-230.215476, -137.924333) "></path>
                            <path d="M225.738409,132.902099 L235.838409,132.902099 C236.77177,132.902099 237.528409,133.658737 237.528409,134.592099 L237.528409,134.592099 C237.528409,135.52546 236.77177,136.282099 235.838409,136.282099 L225.738409,136.282099 C224.805048,136.282099 224.048409,135.52546 224.048409,134.592099 L224.048409,134.592099 C224.048409,133.658737 224.805048,132.902099 225.738409,132.902099 Z" id="Rectangle-path" stroke="#FFFFFF" stroke-width="2" stroke-linecap="round" stroke-linejoin="round" transform="translate(230.788409, 134.592099) rotate(-170.040000) translate(-230.788409, -134.592099) "></path>
                            <polyline id="Shape" stroke="#FFFFFF" stroke-width="2" stroke-linecap="round" points="220.42 170.7 221.41 165.02 229.24 166.4 228.24 172.08"></polyline>
                            <path d="M45.22,7 C45.8034321,10.0384395 44.4507889,13.1216704 41.82,14.75 C39.5067053,16.0933187 36.6524808,16.1004683 34.3324854,14.7687556 C32.01249,13.437043 30.579186,10.9687869 30.5724853,8.29375555 C30.5657847,5.61872422 31.9867052,3.14331858 34.3,1.8 C36.4024271,0.659209532 38.9236464,0.592722373 41.0832772,1.62111797 C43.2429079,2.64951357 44.7804517,4.64874506 45.22,7 L45.22,7 Z" id="Shape" stroke="#FFFFFF" stroke-width="2" stroke-linecap="round" stroke-linejoin="round"></path>
                            <path d="M23.57,40.8 L33.36,14.32 C34.6934688,15.3307201 36.3269708,15.8658328 38,15.84 L29.78,38.17" id="Shape" stroke="#FFFFFF" stroke-width="2" stroke-linecap="round" stroke-linejoin="round"></path>
                            <path d="M12.71,52.11 L20.5,48.96" id="Shape" stroke="#FFFFFF" stroke-width="2" stroke-linecap="round" stroke-linejoin="round"></path>
                            <circle id="Oval" stroke="#FFFFFF" cx="35.08" cy="7.56" r="1.68"></circle>
                            <path d="M27.06,39.27 C19.8654934,42.1766875 13.1890984,46.2291276 7.29,51.27 L6.95,51.56 L10.39,60.05 L32,51.36 L53.57,42.64 L50.13,34.14 L49.69,34.14 C41.9184416,34.6118838 34.2753473,36.3444987 27.06,39.27 L27.06,39.27 Z" id="Shape" stroke="#FFFFFF" stroke-width="2" stroke-linecap="round"></path>
                        </g>
                        <g transform="translate(459.000000, 328.000000)">
                            <path d="M104.93,22.57 L133.07,50.71" id="Shape" stroke="#FFFFFF" stroke-width="2" stroke-linecap="round" stroke-linejoin="round"></path>
                            <path d="M109.09,18.41 L137.22,46.55" id="Shape" stroke="#FFFFFF" stroke-width="2" stroke-linecap="round" stroke-linejoin="round"></path>
                            <path d="M133.07,18.41 L104.93,46.55" id="Shape" stroke="#FFFFFF" stroke-width="2" stroke-linecap="round" stroke-linejoin="round"></path>
                            <path d="M137.22,22.57 L109.09,50.71" id="Shape" stroke="#FFFFFF" stroke-width="2" stroke-linecap="round" stroke-linejoin="round"></path>
                            <path d="M140.98,31.62 L101.18,31.62" id="Shape" stroke="#FFFFFF" stroke-width="2" stroke-linecap="round" stroke-linejoin="round"></path>
                            <path d="M140.98,37.5 L101.19,37.5" id="Shape" stroke="#FFFFFF" stroke-width="2" stroke-linecap="round" stroke-linejoin="round"></path>
                            <path d="M118.14,14.66 L118.14,54.46" id="Shape" stroke="#FFFFFF" stroke-width="2" stroke-linecap="round" stroke-linejoin="round"></path>
                            <path d="M124.02,14.66 L124.02,54.45" id="Shape" stroke="#FFFFFF" stroke-width="2" stroke-linecap="round" stroke-linejoin="round"></path>
                            <circle id="Oval" stroke="#FFFFFF" stroke-width="2" stroke-linecap="round" stroke-linejoin="round" cx="121.08" cy="34.56" r="26.13"></circle>
                            <circle id="Oval" stroke="#FFFFFF" stroke-width="2" stroke-linecap="round" stroke-linejoin="round" cx="121.08" cy="34.56" r="20.11"></circle>
                            <circle id="Oval" stroke="#FFFFFF" stroke-width="2" fill="#FFFFFF" fill-rule="nonzero" stroke-linecap="round" stroke-linejoin="round" cx="121.08" cy="34.56" r="6.05"></circle>
                            <path d="M19.05,79.11 L19.05,86.16" id="Shape" stroke="#FFFFFF" stroke-width="2" stroke-linecap="round" stroke-linejoin="round"></path>
                            <path d="M22.38,82.63 L15.73,82.63" id="Shape" stroke="#FFFFFF" stroke-width="2" stroke-linecap="round" stroke-linejoin="round"></path>
                            <path d="M3.6,3.31 L3.6,10.37" id="Shape" stroke="#FFFFFF" stroke-width="2" stroke-linecap="round" stroke-linejoin="round"></path>
                            <path d="M6.92,6.84 L0.27,6.84" id="Shape" stroke="#FFFFFF" stroke-width="2" stroke-linecap="round" stroke-linejoin="round"></path>
                            <path d="M74.38,38.08 L74.41,45.14" id="Shape" stroke="#FFFFFF" stroke-width="2" stroke-linecap="round" stroke-linejoin="round"></path>
                            <path d="M77.92,41.59 L70.86,41.62" id="Shape" stroke="#FFFFFF" stroke-width="2" stroke-linecap="round" stroke-linejoin="round"></path>
                            <path d="M172.69,69.07 L172.73,76.13" id="Shape" stroke="#FFFFFF" stroke-width="2" stroke-linecap="round" stroke-linejoin="round"></path>
                            <path d="M176.24,72.59 L169.18,72.62" id="Shape" stroke="#FFFFFF" stroke-width="2" stroke-linecap="round" stroke-linejoin="round"></path>
                            <path d="M116.86,84.15 L116.89,91.21" id="Shape" stroke="#FFFFFF" stroke-width="2" stroke-linecap="round" stroke-linejoin="round"></path>
                            <path d="M120.4,87.67 L113.34,87.7" id="Shape" stroke="#FFFFFF" stroke-width="2" stroke-linecap="round" stroke-linejoin="round"></path>
                            <path d="M238.82,2.94 L238.85,10" id="Shape" stroke="#FFFFFF" stroke-width="2" stroke-linecap="round" stroke-linejoin="round"></path>
                            <path d="M242.37,6.45 L235.31,6.49" id="Shape" stroke="#FFFFFF" stroke-width="2" stroke-linecap="round" stroke-linejoin="round"></path>
                            <circle id="Oval" stroke="#FFFFFF" stroke-width="2" stroke-linecap="round" stroke-linejoin="round" cx="217.63" cy="81.93" r="12.67"></circle>
                            <circle id="Oval" stroke="#FFFFFF" stroke-width="2" stroke-linecap="round" stroke-linejoin="round" cx="217.63" cy="81.93" r="16.47"></circle>
                            <circle id="Oval" stroke="#FFFFFF" stroke-width="2" stroke-linecap="round" stroke-linejoin="round" cx="217.63" cy="81.93" r="2.96"></circle>
                            <path d="M182.54,106.99 L204.96,71.41" id="Shape" stroke="#FFFFFF" stroke-width="2" stroke-linecap="round" stroke-linejoin="round"></path>
                            <path d="M172,4.71 L176.96,8.33" id="Shape" stroke="#FFFFFF" stroke-width="2" fill="#FFFFFF" fill-rule="nonzero" stroke-linecap="round" stroke-linejoin="round"></path>
                            <polygon id="Shape" stroke="#FFFFFF" stroke-width="2" stroke-linecap="round" points="184.12 18.83 170.57 37.37 174.88 40.52 188.44 21.98 186.28 20.4"></polygon>
                            <polygon id="Shape" stroke="#FFFFFF" stroke-width="2" stroke-linecap="round" points="196.42 11.05 198.09 8.77 193.77 5.61 192.11 7.89 194.27 9.47"></polygon>
                            <path d="M192.11,7.89 L186,3.4 C185.722743,3.20018604 185.336736,3.25786521 185.13,3.53 L181.5,8.53 L177.87,13.53 C177.772376,13.6636536 177.732244,13.8307923 177.75854,13.9942005 C177.784835,14.1576087 177.875375,14.3037197 178.01,14.4 L184.16,18.9" id="Shape" stroke="#FFFFFF" stroke-width="2" stroke-linecap="round" stroke-linejoin="round"></path>
                            <path d="M188.44,22 L194.59,26.49 C194.86408,26.6887346 195.246906,26.6308656 195.45,26.36 L199.08,21.36 L202.71,16.36 C202.807624,16.2263464 202.847756,16.0592077 202.82146,15.8957995 C202.795165,15.7323913 202.704625,15.5862803 202.57,15.49 L196.42,11" id="Shape" stroke="#FFFFFF" stroke-width="2" stroke-linecap="round" stroke-linejoin="round"></path>
                            <path d="M190.72,11.27 L197.74,16.4" id="Shape" stroke="#FFFFFF" stroke-width="2" fill="#FFFFFF" fill-rule="nonzero" stroke-linecap="round" stroke-linejoin="round"></path>
                            <path d="M178.75,2.54 L185.8,7.64" id="Shape" stroke="#FFFFFF" stroke-width="2" fill="#FFFFFF" fill-rule="nonzero" stroke-linecap="round" stroke-linejoin="round"></path>
                            <path d="M210,30.18 L212.1,27.3 C213.089099,25.9522419 214.605933,25.0901562 216.27,24.93 L216.27,24.93 C218.66761,24.6989685 220.961743,25.9611389 222.05,28.11 L230.8,45.37" id="Shape" stroke="#FFFFFF" stroke-width="2" stroke-linecap="round"></path>
                            <path d="M210.05,30.17 L208,33 C207.011323,34.3522189 206.647451,36.0624138 207,37.7 L207,37.7 C207.514246,40.0526093 209.413228,41.8524795 211.79,42.24 L230.89,45.33" id="Shape" stroke="#FFFFFF" stroke-width="2" stroke-linecap="round"></path>
                            <path d="M220.63,32.84 L224.77,41.02" id="Shape" stroke="#FFFFFF" stroke-width="2" fill="#FFFFFF" fill-rule="nonzero" stroke-linecap="round" stroke-linejoin="round"></path>
                            <path d="M68.64,76.9 L69.62,82.96" id="Shape" stroke="#FFFFFF" stroke-width="2" fill="#FFFFFF" fill-rule="nonzero" stroke-linecap="round" stroke-linejoin="round"></path>
                            <path d="M80.7,93.3 L79.49,85.78 C79.4338334,85.4436892 79.1166409,85.2158467 78.78,85.27 L72.71,86.27 L66.63,87.27 C66.295293,87.3357438 66.0709665,87.65244 66.12,87.99 L67.33,95.51" id="Shape" stroke="#FFFFFF" stroke-width="2" stroke-linecap="round" stroke-linejoin="round"></path>
                            <path d="M74.97,80.11 L76.39,88.68" id="Shape" stroke="#FFFFFF" stroke-width="2" fill="#FFFFFF" fill-rule="nonzero" stroke-linecap="round" stroke-linejoin="round"></path>
                            <path d="M45.22,7 C45.8034321,10.0384395 44.4507889,13.1216704 41.82,14.75 C39.5067053,16.0933187 36.6524808,16.1004683 34.3324854,14.7687556 C32.01249,13.437043 30.579186,10.9687869 30.5724853,8.29375555 C30.5657847,5.61872422 31.9867052,3.14331858 34.3,1.8 C36.4024271,0.659209532 38.9236464,0.592722373 41.0832772,1.62111797 C43.2429079,2.64951357 44.7804517,4.64874506 45.22,7 L45.22,7 Z" id="Shape" stroke="#FFFFFF" stroke-width="2" stroke-linecap="round" stroke-linejoin="round"></path>
                            <path d="M23.57,40.8 L33.36,14.32 C34.6934688,15.3307201 36.3269708,15.8658328 38,15.84 L29.78,38.17" id="Shape" stroke="#FFFFFF" stroke-width="2" stroke-linecap="round" stroke-linejoin="round"></path>
                            <path d="M12.71,52.11 L20.5,48.96" id="Shape" stroke="#FFFFFF" stroke-width="2" stroke-linecap="round" stroke-linejoin="round"></path>
                            <circle id="Oval" stroke="#FFFFFF" cx="35.08" cy="7.56" r="1.68"></circle>
                            <path d="M27.06,39.27 C19.8654934,42.1766875 13.1890984,46.2291276 7.29,51.27 L6.95,51.56 L10.39,60.05 L32,51.36 L53.57,42.64 L50.13,34.14 L49.69,34.14 C41.9184416,34.6118838 34.2753473,36.3444987 27.06,39.27 L27.06,39.27 Z" id="Shape" stroke="#FFFFFF" stroke-width="2" stroke-linecap="round"></path>
                        </g>
                        <g transform="translate(697.000000, 361.000000)">
                            <path d="M104.93,22.57 L133.07,50.71" id="Shape" stroke="#FFFFFF" stroke-width="2" stroke-linecap="round" stroke-linejoin="round"></path>
                            <path d="M109.09,18.41 L137.22,46.55" id="Shape" stroke="#FFFFFF" stroke-width="2" stroke-linecap="round" stroke-linejoin="round"></path>
                            <path d="M133.07,18.41 L104.93,46.55" id="Shape" stroke="#FFFFFF" stroke-width="2" stroke-linecap="round" stroke-linejoin="round"></path>
                            <path d="M137.22,22.57 L109.09,50.71" id="Shape" stroke="#FFFFFF" stroke-width="2" stroke-linecap="round" stroke-linejoin="round"></path>
                            <path d="M140.98,31.62 L101.18,31.62" id="Shape" stroke="#FFFFFF" stroke-width="2" stroke-linecap="round" stroke-linejoin="round"></path>
                            <path d="M140.98,37.5 L101.19,37.5" id="Shape" stroke="#FFFFFF" stroke-width="2" stroke-linecap="round" stroke-linejoin="round"></path>
                            <path d="M118.14,14.66 L118.14,54.46" id="Shape" stroke="#FFFFFF" stroke-width="2" stroke-linecap="round" stroke-linejoin="round"></path>
                            <path d="M124.02,14.66 L124.02,54.45" id="Shape" stroke="#FFFFFF" stroke-width="2" stroke-linecap="round" stroke-linejoin="round"></path>
                            <circle id="Oval" stroke="#FFFFFF" stroke-width="2" stroke-linecap="round" stroke-linejoin="round" cx="121.08" cy="34.56" r="26.13"></circle>
                            <circle id="Oval" stroke="#FFFFFF" stroke-width="2" stroke-linecap="round" stroke-linejoin="round" cx="121.08" cy="34.56" r="20.11"></circle>
                            <circle id="Oval" stroke="#FFFFFF" stroke-width="2" fill="#FFFFFF" fill-rule="nonzero" stroke-linecap="round" stroke-linejoin="round" cx="121.08" cy="34.56" r="6.05"></circle>
                            <path d="M3.6,3.31 L3.6,10.37" id="Shape" stroke="#FFFFFF" stroke-width="2" stroke-linecap="round" stroke-linejoin="round"></path>
                            <path d="M6.92,6.84 L0.27,6.84" id="Shape" stroke="#FFFFFF" stroke-width="2" stroke-linecap="round" stroke-linejoin="round"></path>
                            <path d="M74.38,38.08 L74.41,45.14" id="Shape" stroke="#FFFFFF" stroke-width="2" stroke-linecap="round" stroke-linejoin="round"></path>
                            <path d="M77.92,41.59 L70.86,41.62" id="Shape" stroke="#FFFFFF" stroke-width="2" stroke-linecap="round" stroke-linejoin="round"></path>
                            <path d="M238.82,2.94 L238.85,10" id="Shape" stroke="#FFFFFF" stroke-width="2" stroke-linecap="round" stroke-linejoin="round"></path>
                            <path d="M242.37,6.45 L235.31,6.49" id="Shape" stroke="#FFFFFF" stroke-width="2" stroke-linecap="round" stroke-linejoin="round"></path>
                            <path d="M172,4.71 L176.96,8.33" id="Shape" stroke="#FFFFFF" stroke-width="2" fill="#FFFFFF" fill-rule="nonzero" stroke-linecap="round" stroke-linejoin="round"></path>
                            <polygon id="Shape" stroke="#FFFFFF" stroke-width="2" stroke-linecap="round" points="184.12 18.83 170.57 37.37 174.88 40.52 188.44 21.98 186.28 20.4"></polygon>
                            <polygon id="Shape" stroke="#FFFFFF" stroke-width="2" stroke-linecap="round" points="196.42 11.05 198.09 8.77 193.77 5.61 192.11 7.89 194.27 9.47"></polygon>
                            <path d="M192.11,7.89 L186,3.4 C185.722743,3.20018604 185.336736,3.25786521 185.13,3.53 L181.5,8.53 L177.87,13.53 C177.772376,13.6636536 177.732244,13.8307923 177.75854,13.9942005 C177.784835,14.1576087 177.875375,14.3037197 178.01,14.4 L184.16,18.9" id="Shape" stroke="#FFFFFF" stroke-width="2" stroke-linecap="round" stroke-linejoin="round"></path>
                            <path d="M188.44,22 L194.59,26.49 C194.86408,26.6887346 195.246906,26.6308656 195.45,26.36 L199.08,21.36 L202.71,16.36 C202.807624,16.2263464 202.847756,16.0592077 202.82146,15.8957995 C202.795165,15.7323913 202.704625,15.5862803 202.57,15.49 L196.42,11" id="Shape" stroke="#FFFFFF" stroke-width="2" stroke-linecap="round" stroke-linejoin="round"></path>
                            <path d="M190.72,11.27 L197.74,16.4" id="Shape" stroke="#FFFFFF" stroke-width="2" fill="#FFFFFF" fill-rule="nonzero" stroke-linecap="round" stroke-linejoin="round"></path>
                            <path d="M178.75,2.54 L185.8,7.64" id="Shape" stroke="#FFFFFF" stroke-width="2" fill="#FFFFFF" fill-rule="nonzero" stroke-linecap="round" stroke-linejoin="round"></path>
                            <path d="M210,30.18 L212.1,27.3 C213.089099,25.9522419 214.605933,25.0901562 216.27,24.93 L216.27,24.93 C218.66761,24.6989685 220.961743,25.9611389 222.05,28.11 L230.8,45.37" id="Shape" stroke="#FFFFFF" stroke-width="2" stroke-linecap="round"></path>
                            <path d="M210.05,30.17 L208,33 C207.011323,34.3522189 206.647451,36.0624138 207,37.7 L207,37.7 C207.514246,40.0526093 209.413228,41.8524795 211.79,42.24 L230.89,45.33" id="Shape" stroke="#FFFFFF" stroke-width="2" stroke-linecap="round"></path>
                            <path d="M220.63,32.84 L224.77,41.02" id="Shape" stroke="#FFFFFF" stroke-width="2" fill="#FFFFFF" fill-rule="nonzero" stroke-linecap="round" stroke-linejoin="round"></path>
                            <path d="M45.22,7 C45.8034321,10.0384395 44.4507889,13.1216704 41.82,14.75 C39.5067053,16.0933187 36.6524808,16.1004683 34.3324854,14.7687556 C32.01249,13.437043 30.579186,10.9687869 30.5724853,8.29375555 C30.5657847,5.61872422 31.9867052,3.14331858 34.3,1.8 C36.4024271,0.659209532 38.9236464,0.592722373 41.0832772,1.62111797 C43.2429079,2.64951357 44.7804517,4.64874506 45.22,7 L45.22,7 Z" id="Shape" stroke="#FFFFFF" stroke-width="2" stroke-linecap="round" stroke-linejoin="round"></path>
                            <path d="M23.57,40.8 L33.36,14.32 C34.6934688,15.3307201 36.3269708,15.8658328 38,15.84 L29.78,38.17" id="Shape" stroke="#FFFFFF" stroke-width="2" stroke-linecap="round" stroke-linejoin="round"></path>
                            <path d="M12.71,52.11 L20.5,48.96" id="Shape" stroke="#FFFFFF" stroke-width="2" stroke-linecap="round" stroke-linejoin="round"></path>
                            <circle id="Oval" stroke="#FFFFFF" cx="35.08" cy="7.56" r="1.68"></circle>
                            <path d="M27.06,39.27 C19.8654934,42.1766875 13.1890984,46.2291276 7.29,51.27 L6.95,51.56 L10.39,60.05 L32,51.36 L53.57,42.64 L50.13,34.14 L49.69,34.14 C41.9184416,34.6118838 34.2753473,36.3444987 27.06,39.27 L27.06,39.27 Z" id="Shape" stroke="#FFFFFF" stroke-width="2" stroke-linecap="round"></path>
                        </g>
                        <g transform="translate(950.000000, 328.000000)">
                            <path d="M104.93,22.57 L133.07,50.71" id="Shape" stroke="#FFFFFF" stroke-width="2" stroke-linecap="round" stroke-linejoin="round"></path>
                            <path d="M109.09,18.41 L137.22,46.55" id="Shape" stroke="#FFFFFF" stroke-width="2" stroke-linecap="round" stroke-linejoin="round"></path>
                            <path d="M133.07,18.41 L104.93,46.55" id="Shape" stroke="#FFFFFF" stroke-width="2" stroke-linecap="round" stroke-linejoin="round"></path>
                            <path d="M137.22,22.57 L109.09,50.71" id="Shape" stroke="#FFFFFF" stroke-width="2" stroke-linecap="round" stroke-linejoin="round"></path>
                            <path d="M140.98,31.62 L101.18,31.62" id="Shape" stroke="#FFFFFF" stroke-width="2" stroke-linecap="round" stroke-linejoin="round"></path>
                            <path d="M140.98,37.5 L101.19,37.5" id="Shape" stroke="#FFFFFF" stroke-width="2" stroke-linecap="round" stroke-linejoin="round"></path>
                            <path d="M118.14,14.66 L118.14,54.46" id="Shape" stroke="#FFFFFF" stroke-width="2" stroke-linecap="round" stroke-linejoin="round"></path>
                            <path d="M124.02,14.66 L124.02,54.45" id="Shape" stroke="#FFFFFF" stroke-width="2" stroke-linecap="round" stroke-linejoin="round"></path>
                            <circle id="Oval" stroke="#FFFFFF" stroke-width="2" stroke-linecap="round" stroke-linejoin="round" cx="121.08" cy="34.56" r="26.13"></circle>
                            <circle id="Oval" stroke="#FFFFFF" stroke-width="2" stroke-linecap="round" stroke-linejoin="round" cx="121.08" cy="34.56" r="20.11"></circle>
                            <circle id="Oval" stroke="#FFFFFF" stroke-width="2" fill="#FFFFFF" fill-rule="nonzero" stroke-linecap="round" stroke-linejoin="round" cx="121.08" cy="34.56" r="6.05"></circle>
                            <path d="M19.05,79.11 L19.05,86.16" id="Shape" stroke="#FFFFFF" stroke-width="2" stroke-linecap="round" stroke-linejoin="round"></path>
                            <path d="M22.38,82.63 L15.73,82.63" id="Shape" stroke="#FFFFFF" stroke-width="2" stroke-linecap="round" stroke-linejoin="round"></path>
                            <path d="M3.6,3.31 L3.6,10.37" id="Shape" stroke="#FFFFFF" stroke-width="2" stroke-linecap="round" stroke-linejoin="round"></path>
                            <path d="M6.92,6.84 L0.27,6.84" id="Shape" stroke="#FFFFFF" stroke-width="2" stroke-linecap="round" stroke-linejoin="round"></path>
                            <path d="M74.38,38.08 L74.41,45.14" id="Shape" stroke="#FFFFFF" stroke-width="2" stroke-linecap="round" stroke-linejoin="round"></path>
                            <path d="M77.92,41.59 L70.86,41.62" id="Shape" stroke="#FFFFFF" stroke-width="2" stroke-linecap="round" stroke-linejoin="round"></path>
                            <path d="M172.69,69.07 L172.73,76.13" id="Shape" stroke="#FFFFFF" stroke-width="2" stroke-linecap="round" stroke-linejoin="round"></path>
                            <path d="M176.24,72.59 L169.18,72.62" id="Shape" stroke="#FFFFFF" stroke-width="2" stroke-linecap="round" stroke-linejoin="round"></path>
                            <path d="M116.86,84.15 L116.89,91.21" id="Shape" stroke="#FFFFFF" stroke-width="2" stroke-linecap="round" stroke-linejoin="round"></path>
                            <path d="M120.4,87.67 L113.34,87.7" id="Shape" stroke="#FFFFFF" stroke-width="2" stroke-linecap="round" stroke-linejoin="round"></path>
                            <path d="M238.82,2.94 L238.85,10" id="Shape" stroke="#FFFFFF" stroke-width="2" stroke-linecap="round" stroke-linejoin="round"></path>
                            <path d="M242.37,6.45 L235.31,6.49" id="Shape" stroke="#FFFFFF" stroke-width="2" stroke-linecap="round" stroke-linejoin="round"></path>
                            <circle id="Oval" stroke="#FFFFFF" stroke-width="2" stroke-linecap="round" stroke-linejoin="round" cx="217.63" cy="81.93" r="12.67"></circle>
                            <circle id="Oval" stroke="#FFFFFF" stroke-width="2" stroke-linecap="round" stroke-linejoin="round" cx="217.63" cy="81.93" r="16.47"></circle>
                            <circle id="Oval" stroke="#FFFFFF" stroke-width="2" stroke-linecap="round" stroke-linejoin="round" cx="217.63" cy="81.93" r="2.96"></circle>
                            <path d="M182.54,106.99 L204.96,71.41" id="Shape" stroke="#FFFFFF" stroke-width="2" stroke-linecap="round" stroke-linejoin="round"></path>
                            <path d="M172,4.71 L176.96,8.33" id="Shape" stroke="#FFFFFF" stroke-width="2" fill="#FFFFFF" fill-rule="nonzero" stroke-linecap="round" stroke-linejoin="round"></path>
                            <polygon id="Shape" stroke="#FFFFFF" stroke-width="2" stroke-linecap="round" points="184.12 18.83 170.57 37.37 174.88 40.52 188.44 21.98 186.28 20.4"></polygon>
                            <polygon id="Shape" stroke="#FFFFFF" stroke-width="2" stroke-linecap="round" points="196.42 11.05 198.09 8.77 193.77 5.61 192.11 7.89 194.27 9.47"></polygon>
                            <path d="M192.11,7.89 L186,3.4 C185.722743,3.20018604 185.336736,3.25786521 185.13,3.53 L181.5,8.53 L177.87,13.53 C177.772376,13.6636536 177.732244,13.8307923 177.75854,13.9942005 C177.784835,14.1576087 177.875375,14.3037197 178.01,14.4 L184.16,18.9" id="Shape" stroke="#FFFFFF" stroke-width="2" stroke-linecap="round" stroke-linejoin="round"></path>
                            <path d="M188.44,22 L194.59,26.49 C194.86408,26.6887346 195.246906,26.6308656 195.45,26.36 L199.08,21.36 L202.71,16.36 C202.807624,16.2263464 202.847756,16.0592077 202.82146,15.8957995 C202.795165,15.7323913 202.704625,15.5862803 202.57,15.49 L196.42,11" id="Shape" stroke="#FFFFFF" stroke-width="2" stroke-linecap="round" stroke-linejoin="round"></path>
                            <path d="M190.72,11.27 L197.74,16.4" id="Shape" stroke="#FFFFFF" stroke-width="2" fill="#FFFFFF" fill-rule="nonzero" stroke-linecap="round" stroke-linejoin="round"></path>
                            <path d="M178.75,2.54 L185.8,7.64" id="Shape" stroke="#FFFFFF" stroke-width="2" fill="#FFFFFF" fill-rule="nonzero" stroke-linecap="round" stroke-linejoin="round"></path>
                            <path d="M210,30.18 L212.1,27.3 C213.089099,25.9522419 214.605933,25.0901562 216.27,24.93 L216.27,24.93 C218.66761,24.6989685 220.961743,25.9611389 222.05,28.11 L230.8,45.37" id="Shape" stroke="#FFFFFF" stroke-width="2" stroke-linecap="round"></path>
                            <path d="M210.05,30.17 L208,33 C207.011323,34.3522189 206.647451,36.0624138 207,37.7 L207,37.7 C207.514246,40.0526093 209.413228,41.8524795 211.79,42.24 L230.89,45.33" id="Shape" stroke="#FFFFFF" stroke-width="2" stroke-linecap="round"></path>
                            <path d="M220.63,32.84 L224.77,41.02" id="Shape" stroke="#FFFFFF" stroke-width="2" fill="#FFFFFF" fill-rule="nonzero" stroke-linecap="round" stroke-linejoin="round"></path>
                            <path d="M68.64,76.9 L69.62,82.96" id="Shape" stroke="#FFFFFF" stroke-width="2" fill="#FFFFFF" fill-rule="nonzero" stroke-linecap="round" stroke-linejoin="round"></path>
                            <path d="M80.7,93.3 L79.49,85.78 C79.4338334,85.4436892 79.1166409,85.2158467 78.78,85.27 L72.71,86.27 L66.63,87.27 C66.295293,87.3357438 66.0709665,87.65244 66.12,87.99 L67.33,95.51" id="Shape" stroke="#FFFFFF" stroke-width="2" stroke-linecap="round" stroke-linejoin="round"></path>
                            <path d="M74.97,80.11 L76.39,88.68" id="Shape" stroke="#FFFFFF" stroke-width="2" fill="#FFFFFF" fill-rule="nonzero" stroke-linecap="round" stroke-linejoin="round"></path>
                            <path d="M45.22,7 C45.8034321,10.0384395 44.4507889,13.1216704 41.82,14.75 C39.5067053,16.0933187 36.6524808,16.1004683 34.3324854,14.7687556 C32.01249,13.437043 30.579186,10.9687869 30.5724853,8.29375555 C30.5657847,5.61872422 31.9867052,3.14331858 34.3,1.8 C36.4024271,0.659209532 38.9236464,0.592722373 41.0832772,1.62111797 C43.2429079,2.64951357 44.7804517,4.64874506 45.22,7 L45.22,7 Z" id="Shape" stroke="#FFFFFF" stroke-width="2" stroke-linecap="round" stroke-linejoin="round"></path>
                            <path d="M23.57,40.8 L33.36,14.32 C34.6934688,15.3307201 36.3269708,15.8658328 38,15.84 L29.78,38.17" id="Shape" stroke="#FFFFFF" stroke-width="2" stroke-linecap="round" stroke-linejoin="round"></path>
                            <path d="M12.71,52.11 L20.5,48.96" id="Shape" stroke="#FFFFFF" stroke-width="2" stroke-linecap="round" stroke-linejoin="round"></path>
                            <circle id="Oval" stroke="#FFFFFF" cx="35.08" cy="7.56" r="1.68"></circle>
                            <path d="M27.06,39.27 C19.8654934,42.1766875 13.1890984,46.2291276 7.29,51.27 L6.95,51.56 L10.39,60.05 L32,51.36 L53.57,42.64 L50.13,34.14 L49.69,34.14 C41.9184416,34.6118838 34.2753473,36.3444987 27.06,39.27 L27.06,39.27 Z" id="Shape" stroke="#FFFFFF" stroke-width="2" stroke-linecap="round"></path>
                        </g>
                    </g>
                </g>
            </g>
        </g>
    </g>
</svg>