<?xml version="1.0" encoding="UTF-8"?>
<svg width="32px" height="26px" viewBox="0 0 32 26" version="1.1" xmlns="http://www.w3.org/2000/svg" xmlns:xlink="http://www.w3.org/1999/xlink">
    <!-- Generator: Sketch 53.2 (72643) - https://sketchapp.com -->
    <title>Combined Shape</title>
    <desc>Created with Sketch.</desc>
    <g id="Assets" stroke="none" stroke-width="1" fill="none" fill-rule="evenodd">
        <g id="Artboard" transform="translate(-323.000000, -1412.000000)" fill="#FFFFFF">
            <g id="gmail" transform="translate(323.000000, 1412.000000)">
                <path d="M1,0 L31,0 C31.5522847,-1.01453063e-16 32,0.44771525 32,1 L32,25 C32,25.5522847 31.5522847,26 31,26 L1,26 C0.44771525,26 6.76353751e-17,25.5522847 0,25 L0,1 C-6.76353751e-17,0.44771525 0.44771525,1.01453063e-16 1,0 Z M28,5.5 C28,5.075 27.839,4.7 27.569,4.432 C27.3,4.162 26.925,4 26.5,4 L26,4 L16,11.25 L6,4 L5.5,4 C5.076,4 4.7,4.16 4.431,4.432 C4.162,4.7 4,5.075 4,5.5 L4,20.5 C4,21.35 4.649,22 5.5,22 L7,22 L7,8.387 L16,14.85 L25,8.387 L25,22 L26.5,22 C27.35,22 28,21.35 28,20.5 L28,5.5 Z" id="Combined-Shape"></path>
            </g>
        </g>
    </g>
</svg>