<?xml version="1.0" encoding="UTF-8"?>
<svg width="32px" height="26px" viewBox="0 0 32 26" version="1.1" xmlns="http://www.w3.org/2000/svg" xmlns:xlink="http://www.w3.org/1999/xlink">
    <!-- Generator: Sketch 53.2 (72643) - https://sketchapp.com -->
    <title>Combined Shape</title>
    <desc>Created with Sketch.</desc>
    <g id="Assets" stroke="none" stroke-width="1" fill="none" fill-rule="evenodd">
        <g id="Artboard" transform="translate(-45.000000, -27.000000)" fill="#FFFFFF">
            <g id="gmail" transform="translate(45.000000, 27.000000)">
                <path d="M2,0 L30,0 C31.1045695,-2.02906125e-16 32,0.8954305 32,2 L32,24 C32,25.1045695 31.1045695,26 30,26 L2,26 C0.8954305,26 1.3527075e-16,25.1045695 0,24 L0,2 C-1.3527075e-16,0.8954305 0.8954305,2.02906125e-16 2,0 Z M28,5.5 C28,5.075 27.839,4.7 27.569,4.432 C27.3,4.162 26.925,4 26.5,4 L26,4 L16,11.25 L6,4 L5.5,4 C5.076,4 4.7,4.16 4.431,4.432 C4.162,4.7 4,5.075 4,5.5 L4,20.5 C4,21.35 4.649,22 5.5,22 L7,22 L7,8.387 L16,14.85 L25,8.387 L25,22 L26.5,22 C27.35,22 28,21.35 28,20.5 L28,5.5 Z" id="Combined-Shape"></path>
            </g>
        </g>
    </g>
</svg>