<?xml version="1.0" encoding="UTF-8"?>
<svg width="20px" height="20px" viewBox="0 0 20 20" version="1.1" xmlns="http://www.w3.org/2000/svg" xmlns:xlink="http://www.w3.org/1999/xlink">
    <!-- Generator: Sketch 53.2 (72643) - https://sketchapp.com -->
    <title>Combined Shape</title>
    <desc>Created with Sketch.</desc>
    <g id="Symbols" stroke="none" stroke-width="1" fill="none" fill-rule="evenodd">
        <g id="Footer-+-Sock---HiFi" transform="translate(-1186.000000, -616.000000)" fill="#FFFFFF">
            <g id="footer-+-sock---contained">
                <g id="footer-+-sock" transform="translate(-177.000000, 0.000000)">
                    <g id="footer" transform="translate(177.000000, 448.000000)">
                        <g id="content" transform="translate(61.000000, 63.000000)">
                            <g id="social-links" transform="translate(967.000000, 90.000000)">
                                <g id="instagram" transform="translate(144.000000, 0.000000)">
                                    <g transform="translate(14.400000, 15.360000)" id="Combined-Shape">
                                        <path d="M5,-8.52651283e-14 L14.2,-8.52651283e-14 C16.9614237,-8.57723936e-14 19.2,2.23857625 19.2,5 L19.2,14.2 C19.2,16.9614237 16.9614237,19.2 14.2,19.2 L5,19.2 C2.23857625,19.2 -9.02560219e-14,16.9614237 -9.05941988e-14,14.2 L-9.05941988e-14,5 C-9.09323757e-14,2.23857625 2.23857625,-8.4757863e-14 5,-8.52651283e-14 Z M13.44,8.9952 C13.1918769,7.3219423 11.8780577,6.00812309 10.2048,5.76 C8.56610727,5.51700246 6.95630926,6.35229519 6.21151311,7.83203853 C5.46671696,9.31178188 5.75484417,11.1023534 6.9262454,12.2737546 C8.09764662,13.4451558 9.88821812,13.733283 11.3679615,12.9884869 C12.8477048,12.2436907 13.6829975,10.6338927 13.44,8.9952 Z"></path>
                                    </g>
                                </g>
                            </g>
                        </g>
                    </g>
                </g>
            </g>
        </g>
    </g>
</svg>