<?xml version="1.0" encoding="UTF-8"?>
<svg width="20px" height="20px" viewBox="0 0 20 20" version="1.1" xmlns="http://www.w3.org/2000/svg" xmlns:xlink="http://www.w3.org/1999/xlink">
    <!-- Generator: Sketch 53.2 (72643) - https://sketchapp.com -->
    <title>Combined Shape</title>
    <desc>Created with Sketch.</desc>
    <g id="Assets" stroke="none" stroke-width="1" fill="none" fill-rule="evenodd">
        <g id="Artboard" transform="translate(-94.000000, -33.000000)" fill="#FFFFFF">
            <path d="M99,33 L108.2,33 C110.961424,33 113.2,35.2385763 113.2,38 L113.2,47.2 C113.2,49.9614237 110.961424,52.2 108.2,52.2 L99,52.2 C96.2385763,52.2 94,49.9614237 94,47.2 L94,38 C94,35.2385763 96.2385763,33 99,33 Z M107.44,41.9952 C107.191877,40.3219423 105.878058,39.0081231 104.2048,38.76 C102.566107,38.5170025 100.956309,39.3522952 100.211513,40.8320385 C99.466717,42.3117819 99.7548442,44.1023534 100.926245,45.2737546 C102.097647,46.4451558 103.888218,46.733283 105.367961,45.9884869 C106.847705,45.2436907 107.682998,43.6338927 107.44,41.9952 Z M109.75,38 C110.440356,38 111,37.4403559 111,36.75 C111,36.0596441 110.440356,35.5 109.75,35.5 C109.059644,35.5 108.5,36.0596441 108.5,36.75 C108.5,37.4403559 109.059644,38 109.75,38 Z" id="Combined-Shape"></path>
        </g>
    </g>
</svg>