<?xml version="1.0" encoding="UTF-8"?>
<svg width="940px" height="155px" viewBox="0 0 940 155" version="1.1" xmlns="http://www.w3.org/2000/svg" xmlns:xlink="http://www.w3.org/1999/xlink">
    <!-- Generator: Sketch 53.2 (72643) - https://sketchapp.com -->
    <title>Group 4</title>
    <desc>Created with Sketch.</desc>
    <defs>
        <polygon id="path-1" points="0 0.4839 134.7785 0.4839 134.7785 123.3289 0 123.3289"></polygon>
    </defs>
    <g id="Assets" stroke="none" stroke-width="1" fill="none" fill-rule="evenodd">
        <g id="Artboard" transform="translate(-67.000000, -506.000000)">
            <g id="Group-4" transform="translate(67.000000, 505.000000)">
                <g id="Group-20" transform="translate(0.000000, 0.764000)">
                    <path d="M96.1333,84.185 C96.1333,98.537 84.4973,110.171 70.1463,110.171 C55.7923,110.171 44.1573,98.537 44.1573,84.185 C44.1573,69.832 55.7923,58.198 70.1463,58.198 C84.4973,58.198 96.1333,69.832 96.1333,84.185" id="Fill-1" fill="#26A9E0"></path>
                    <path d="M96.1333,84.185 C96.1333,98.537 84.4973,110.171 70.1463,110.171 C55.7923,110.171 44.1573,98.537 44.1573,84.185 C44.1573,69.832 55.7923,58.198 70.1463,58.198 C84.4973,58.198 96.1333,69.832 96.1333,84.185 Z" id="Stroke-3" stroke="#26A9E0"></path>
                    <path d="M139.2056,34.666 C129.5846,21.27 116.1606,10.79 100.5166,4.801 L86.5306,45.398 C93.1416,48.192 98.8886,52.63 103.2646,58.196 L139.2056,34.666 Z" id="Fill-5" fill="#26A9E0"></path>
                    <path d="M139.2056,34.666 C129.5846,21.27 116.1606,10.79 100.5166,4.801 L86.5306,45.398 C93.1416,48.192 98.8886,52.63 103.2646,58.196 L139.2056,34.666 Z" id="Stroke-7" stroke="#26A9E0"></path>
                    <path d="M152.4995,102.8261 C155.7485,86.6571 154.2715,69.6901 147.9935,54.1591 L108.7515,71.5861 C111.2095,78.3301 111.8795,85.5581 110.7865,92.5521 L152.4995,102.8261 Z" id="Fill-9" fill="#26A9E0"></path>
                    <path d="M152.4995,102.8261 C155.7485,86.6571 154.2715,69.6901 147.9935,54.1591 L108.7515,71.5861 C111.2095,78.3301 111.8795,85.5581 110.7865,92.5521 L152.4995,102.8261 Z" id="Stroke-11" stroke="#26A9E0"></path>
                    <path d="M80.249,1.4331 C63.89,-0.6709 47.07,1.9951 32.016,9.3461 L52.157,47.2671 C58.711,44.3411 65.876,43.1661 72.93,43.7671 L80.249,1.4331 Z" id="Fill-13" fill="#26A9E0"></path>
                    <path d="M80.249,1.4331 C63.89,-0.6709 47.07,1.9951 32.016,9.3461 L52.157,47.2671 C58.711,44.3411 65.876,43.1661 72.93,43.7671 L80.249,1.4331 Z" id="Stroke-15" stroke="#26A9E0"></path>
                    <g id="Group-19" transform="translate(0.000000, 31.000000)">
                        <mask id="mask-2" fill="white">
                            <use xlink:href="#path-1"></use>
                        </mask>
                        <g id="Clip-18"></g>
                        <path d="M23.8525,0.4839 C9.2295,13.3389 -0.0005,32.1849 -0.0005,53.1849 C-0.0005,91.9259 31.4045,123.3289 70.1445,123.3289 C99.1995,123.3289 124.1285,105.6639 134.7785,80.4889 L107.5835,73.7859 C100.3105,86.9759 86.2705,95.9089 70.1445,95.9089 C46.5485,95.9089 27.4215,76.7799 27.4215,53.1849 C27.4215,41.4779 32.1295,30.8709 39.7565,23.1549 L23.8525,0.4839 Z" id="Fill-17" fill="#231F20" mask="url(#mask-2)"></path>
                    </g>
                </g>
                <path d="M203.868265,92.8170997 L214.257481,90.0466421 C215.036672,94.7217893 218.759474,98.0982845 224.213813,98.0982845 C231.486264,98.0982845 235.555374,94.4620589 235.555374,86.2372629 L235.555374,83.1204981 C233.823838,85.8909557 229.841305,88.5748365 223.694352,88.5748365 C212.352791,88.5748365 203.868265,79.8305797 203.868265,67.8829813 C203.868265,56.6279973 212.006484,47.1045493 223.694352,47.1045493 C230.447342,47.1045493 234.343298,50.0481605 235.815104,52.9051949 L235.815104,47.8837405 L246.896934,47.8837405 L246.896934,85.8909557 C246.896934,97.5788237 240.576828,108.22777 224.56012,108.22777 C212.872252,108.22777 205.08034,100.955319 203.868265,92.8170997 Z M225.685618,78.7050813 C231.572841,78.7050813 235.728527,74.4628181 235.728527,67.8829813 C235.728527,61.3031445 231.226534,57.1474581 225.685618,57.1474581 C219.97155,57.1474581 215.469556,61.3031445 215.469556,67.8829813 C215.469556,74.5493949 219.711819,78.7050813 225.685618,78.7050813 Z M266.982752,64.3333325 L286.029648,64.3333325 C285.856494,60.0910693 283.086037,55.9353829 276.5062,55.9353829 C270.532401,55.9353829 267.242482,60.4373765 266.982752,64.3333325 Z M287.155146,75.4151629 L296.765171,78.2721973 C294.600751,85.6312253 287.847761,91.7781781 277.371968,91.7781781 C265.6841,91.7781781 255.381461,83.3802285 255.381461,69.0084797 C255.381461,55.4159221 265.42437,46.5850885 276.333046,46.5850885 C289.49272,46.5850885 297.371209,54.9830381 297.371209,68.6621725 C297.371209,70.3071317 297.198055,72.0386677 297.198055,72.2118213 L266.723022,72.2118213 C266.982752,77.8393133 271.744476,81.9084229 277.458545,81.9084229 C282.826306,81.9084229 285.769918,79.2245421 287.155146,75.4151629 Z M317.976487,65.9782917 L317.976487,90.4795261 L306.461773,90.4795261 L306.461773,47.8837405 L317.63018,47.8837405 L317.63018,53.1649253 C320.227484,48.7495085 325.335515,46.7582421 329.924086,46.7582421 C340.486455,46.7582421 345.334756,54.2904237 345.334756,63.6407181 L345.334756,90.4795261 L333.820042,90.4795261 L333.820042,65.6319845 C333.820042,60.8702605 331.482468,57.1474581 325.941553,57.1474581 C320.920098,57.1474581 317.976487,61.0434141 317.976487,65.9782917 Z M365.420574,64.3333325 L384.46747,64.3333325 C384.294316,60.0910693 381.523858,55.9353829 374.944022,55.9353829 C368.970222,55.9353829 365.680304,60.4373765 365.420574,64.3333325 Z M385.592968,75.4151629 L395.202993,78.2721973 C393.038573,85.6312253 386.285582,91.7781781 375.80979,91.7781781 C364.121922,91.7781781 353.819282,83.3802285 353.819282,69.0084797 C353.819282,55.4159221 363.862191,46.5850885 374.770868,46.5850885 C387.930542,46.5850885 395.80903,54.9830381 395.80903,68.6621725 C395.80903,70.3071317 395.635877,72.0386677 395.635877,72.2118213 L365.160843,72.2118213 C365.420574,77.8393133 370.182298,81.9084229 375.896366,81.9084229 C381.264128,81.9084229 384.207739,79.2245421 385.592968,75.4151629 Z M430.872634,47.7105869 L430.872634,59.3118781 C429.573982,59.0521477 428.448484,58.9655709 427.409562,58.9655709 C421.52234,58.9655709 416.414309,61.8226053 416.414309,70.9997461 L416.414309,90.4795261 L404.899594,90.4795261 L404.899594,47.8837405 L416.068002,47.8837405 L416.068002,54.2038469 C418.665306,48.5763549 424.552528,47.5374333 428.188754,47.5374333 C429.141098,47.5374333 430.006866,47.6240101 430.872634,47.7105869 Z M436.67328,78.8782349 C436.67328,71.2594765 442.300772,67.0172133 449.40007,65.9782917 L459.875862,64.4199093 C462.300013,64.0736021 463.079204,62.8615269 463.079204,61.3897213 C463.079204,58.3595333 460.74163,55.8488061 455.89333,55.8488061 C450.871875,55.8488061 448.101418,59.0521477 447.75511,62.7749501 L437.539048,60.6105301 C438.231662,53.9441165 444.378615,46.5850885 455.806753,46.5850885 C469.312734,46.5850885 474.334188,54.2038469 474.334188,62.7749501 L474.334188,83.7265357 C474.334188,85.9775325 474.593918,89.0077205 474.853649,90.4795261 L464.291279,90.4795261 C464.031549,89.3540277 463.858395,87.0164541 463.858395,85.3714949 C461.693975,88.7479901 457.624866,91.6916013 451.304759,91.6916013 C442.214195,91.6916013 436.67328,85.5446485 436.67328,78.8782349 Z M453.72891,83.1204981 C458.57721,83.1204981 463.079204,80.7829245 463.079204,73.2507429 L463.079204,71.3460533 L453.469179,72.8178589 C450.525568,73.2507429 448.187994,74.8957021 448.187994,78.1856205 C448.187994,80.6963477 450.006107,83.1204981 453.72891,83.1204981 Z M499.872344,35.1569509 L499.872344,47.8837405 L508.443447,47.8837405 L508.443447,58.0998029 L499.872344,58.0998029 L499.872344,75.9346237 C499.872344,79.6574261 501.60388,80.8695013 504.893798,80.8695013 C506.279027,80.8695013 507.83741,80.6963477 508.443447,80.5231941 L508.443447,90.0466421 C507.404526,90.4795261 505.326682,91.0855637 501.950187,91.0855637 C493.638814,91.0855637 488.444206,86.1506861 488.444206,77.9258901 L488.444206,58.0998029 L480.738871,58.0998029 L480.738871,47.8837405 L482.903291,47.8837405 C487.405285,47.8837405 489.483128,44.9401293 489.483128,41.1307501 L489.483128,35.1569509 L499.872344,35.1569509 Z M526.189691,64.3333325 L545.236587,64.3333325 C545.063434,60.0910693 542.292976,55.9353829 535.713139,55.9353829 C529.73934,55.9353829 526.449422,60.4373765 526.189691,64.3333325 Z M546.362086,75.4151629 L555.97211,78.2721973 C553.80769,85.6312253 547.0547,91.7781781 536.578907,91.7781781 C524.891039,91.7781781 514.5884,83.3802285 514.5884,69.0084797 C514.5884,55.4159221 524.631309,46.5850885 535.539986,46.5850885 C548.699659,46.5850885 556.578148,54.9830381 556.578148,68.6621725 C556.578148,70.3071317 556.404994,72.0386677 556.404994,72.2118213 L525.929961,72.2118213 C526.189691,77.8393133 530.951415,81.9084229 536.665484,81.9084229 C542.033246,81.9084229 544.976857,79.2245421 546.362086,75.4151629 Z M600.2202,156.000383 L600.2202,1.22235802 L601.2202,1.22235802 L601.2202,156.000383 L600.2202,156.000383 L600.2202,156.000383 Z M658.784965,52.6194512 L655.975239,53.6092409 C655.71981,51.9808772 654.346876,49.7458682 651.185934,49.7458682 C648.631638,49.7458682 646.811702,51.4061606 646.811702,53.5134548 C646.811702,55.1418185 647.801492,56.3870378 649.717214,56.8021109 L653.101656,57.536471 C656.869243,58.3666172 658.976537,60.729341 658.976537,63.8902823 C658.976537,67.4024393 655.975239,70.5953093 651.154006,70.5953093 C645.694198,70.5953093 643.107973,67.0831523 642.6929,63.8583536 L645.694198,62.9004926 C645.917699,65.4228599 647.705706,67.753655 651.122077,67.753655 C654.251089,67.753655 655.783667,66.1252913 655.783667,64.1457119 C655.783667,62.5173482 654.666162,61.1124854 652.399225,60.6335549 L649.174426,59.9311235 C645.949627,59.2286921 643.650761,57.1213979 643.650761,53.7369557 C643.650761,50.19287 646.939417,47 651.122077,47 C656.230669,47 658.274106,50.1609413 658.784965,52.6194512 Z M666.671354,49.9055117 L666.671354,54.7586741 L669.991939,54.7586741 L669.991939,57.4726136 L666.671354,57.4726136 L666.671354,65.4547886 C666.671354,66.8596514 667.24607,67.5620828 668.810577,67.5620828 C669.193721,67.5620828 669.736509,67.4982254 669.991939,67.434368 L669.991939,69.988664 C669.736509,70.0844501 668.97022,70.2760223 667.948502,70.2760223 C665.330348,70.2760223 663.670056,68.6795873 663.670056,65.9017904 L663.670056,57.4726136 L660.732616,57.4726136 L660.732616,54.7586741 L661.562762,54.7586741 C663.223054,54.7586741 663.925485,53.7369557 663.925485,52.3959503 L663.925485,49.9055117 L666.671354,49.9055117 Z M684.104424,68.2645142 C683.274278,69.8609492 681.358556,70.5953093 679.570549,70.5953093 C675.994534,70.5953093 673.823382,67.9132985 673.823382,64.4330702 L673.823382,54.7586741 L676.82468,54.7586741 L676.82468,63.9860684 C676.82468,66.0933626 677.782541,67.9452272 680.304909,67.9452272 C682.73149,67.9452272 683.94478,66.3487922 683.94478,64.0179971 L683.94478,54.7586741 L686.946078,54.7586741 L686.946078,67.2747245 C686.946078,68.4880151 687.041864,69.5735909 687.105722,70.1163788 L684.232139,70.1163788 C684.168281,69.7651631 684.104424,68.9030882 684.104424,68.2645142 Z M693.683034,62.3896334 C693.683034,65.5505747 695.311398,67.8813698 698.184981,67.8813698 C700.930849,67.8813698 702.62307,65.4867173 702.62307,62.325776 C702.62307,59.1648347 700.962777,56.9936831 698.216909,56.9936831 C695.471041,56.9936831 693.683034,59.2286921 693.683034,62.3896334 Z M702.654999,68.0410133 L702.654999,67.7855837 C701.920638,69.2543039 700.292275,70.5314519 697.897622,70.5314519 C693.395676,70.5314519 690.617879,66.9554375 690.617879,62.3896334 C690.617879,58.0473302 693.555319,54.343601 697.897622,54.343601 C700.611562,54.343601 702.080282,55.6846064 702.591141,56.9298257 L702.591141,47 L705.56051,47 L705.56051,67.2747245 C705.56051,68.7434447 705.688225,69.8609492 705.720154,70.1163788 L702.814642,70.1163788 C702.750785,69.7651631 702.654999,68.9669456 702.654999,68.0410133 Z M712.616753,60.8570558 L721.014001,60.8570558 C720.950144,58.6539755 719.513352,56.9298257 716.799413,56.9298257 C714.277045,56.9298257 712.744468,58.8774764 712.616753,60.8570558 Z M721.461003,64.8481433 L724.047228,65.7421469 C723.185153,68.4560864 720.726643,70.5953093 717.150628,70.5953093 C713.031826,70.5953093 709.423883,67.5940115 709.423883,62.3896334 C709.423883,57.5683997 712.904111,54.2797436 716.767484,54.2797436 C721.492932,54.2797436 724.143014,57.536471 724.143014,62.325776 C724.143014,62.7089204 724.111085,63.0920648 724.079156,63.283637 L712.520967,63.283637 C712.584824,66.0295052 714.564404,67.9452272 717.150628,67.9452272 C719.641067,67.9452272 720.886286,66.5722931 721.461003,64.8481433 Z M730.975756,61.2402002 L730.975756,70.1163788 L727.974458,70.1163788 L727.974458,54.7586741 L730.911898,54.7586741 L730.911898,56.9617544 C732.029403,55.0460324 733.849338,54.3116723 735.637346,54.3116723 C739.309146,54.3116723 741.129082,56.9617544 741.129082,60.3781253 L741.129082,70.1163788 L738.127784,70.1163788 L738.127784,60.8889845 C738.127784,58.7497616 737.233781,57.0256118 734.55177,57.0256118 C732.189046,57.0256118 730.975756,58.9094051 730.975756,61.2402002 Z M749.941403,49.9055117 L749.941403,54.7586741 L753.261988,54.7586741 L753.261988,57.4726136 L749.941403,57.4726136 L749.941403,65.4547886 C749.941403,66.8596514 750.51612,67.5620828 752.080626,67.5620828 C752.463771,67.5620828 753.006558,67.4982254 753.261988,67.434368 L753.261988,69.988664 C753.006558,70.0844501 752.24027,70.2760223 751.218551,70.2760223 C748.600398,70.2760223 746.940106,68.6795873 746.940106,65.9017904 L746.940106,57.4726136 L744.002665,57.4726136 L744.002665,54.7586741 L744.832811,54.7586741 C746.493104,54.7586741 747.195535,53.7369557 747.195535,52.3959503 L747.195535,49.9055117 L749.941403,49.9055117 Z M764.788249,62.2619186 L756.135571,62.2619186 L756.135571,59.6437652 L764.788249,59.6437652 L764.788249,62.2619186 Z M782.92375,70.1163788 L769.098623,70.1163788 L769.098623,47.4789305 L772.227636,47.4789305 L772.227636,67.1789384 L782.92375,67.1789384 L782.92375,70.1163788 Z M788.064271,60.8570558 L796.461519,60.8570558 C796.397662,58.6539755 794.96087,56.9298257 792.246931,56.9298257 C789.724563,56.9298257 788.191986,58.8774764 788.064271,60.8570558 Z M796.908521,64.8481433 L799.494746,65.7421469 C798.632671,68.4560864 796.174161,70.5953093 792.598146,70.5953093 C788.479344,70.5953093 784.871401,67.5940115 784.871401,62.3896334 C784.871401,57.5683997 788.351629,54.2797436 792.215002,54.2797436 C796.94045,54.2797436 799.590532,57.536471 799.590532,62.325776 C799.590532,62.7089204 799.558603,63.0920648 799.526674,63.283637 L787.968485,63.283637 C788.032342,66.0295052 790.011922,67.9452272 792.598146,67.9452272 C795.088585,67.9452272 796.333804,66.5722931 796.908521,64.8481433 Z M805.209983,62.3896334 C805.209983,65.5505747 806.838347,67.8813698 809.71193,67.8813698 C812.457798,67.8813698 814.150019,65.4867173 814.150019,62.325776 C814.150019,59.1648347 812.489727,56.9936831 809.743858,56.9936831 C806.99799,56.9936831 805.209983,59.2286921 805.209983,62.3896334 Z M814.181948,68.0410133 L814.181948,67.7855837 C813.447588,69.2543039 811.819224,70.5314519 809.424571,70.5314519 C804.922625,70.5314519 802.144828,66.9554375 802.144828,62.3896334 C802.144828,58.0473302 805.082268,54.343601 809.424571,54.343601 C812.138511,54.343601 813.607231,55.6846064 814.11809,56.9298257 L814.11809,47 L817.087459,47 L817.087459,67.2747245 C817.087459,68.7434447 817.215174,69.8609492 817.247103,70.1163788 L814.341591,70.1163788 C814.277734,69.7651631 814.181948,68.9669456 814.181948,68.0410133 Z M833.626526,58.0473302 L838.160401,58.0473302 C840.874341,58.0473302 842.534633,56.5466813 842.534633,54.2158862 C842.534633,51.8212337 840.874341,50.2886561 838.160401,50.2886561 L833.626526,50.2886561 L833.626526,58.0473302 Z M838.735118,60.8570558 L833.626526,60.8570558 L833.626526,70.1163788 L830.497513,70.1163788 L830.497513,47.4789305 L838.735118,47.4789305 C842.917778,47.4789305 845.727503,50.3844422 845.727503,54.1839575 C845.727503,58.0154015 842.917778,60.8570558 838.735118,60.8570558 Z M857.285693,54.5990306 L857.285693,57.7919006 C856.838691,57.7280432 856.391689,57.6961145 855.976616,57.6961145 C853.454249,57.6961145 851.762028,59.0371199 851.762028,62.4215621 L851.762028,70.1163788 L848.76073,70.1163788 L848.76073,54.7586741 L851.69817,54.7586741 L851.69817,57.4406849 C852.815675,55.0779611 854.731397,54.5032445 856.295903,54.5032445 C856.710976,54.5032445 857.126049,54.5671019 857.285693,54.5990306 Z M866.896231,67.9132985 C869.450527,67.9132985 871.685536,65.9975765 871.685536,62.4215621 C871.685536,58.8774764 869.450527,56.9617544 866.896231,56.9617544 C864.341935,56.9617544 862.106926,58.8774764 862.106926,62.4215621 C862.106926,65.9975765 864.341935,67.9132985 866.896231,67.9132985 Z M866.896231,54.2797436 C871.493964,54.2797436 874.750692,57.7599719 874.750692,62.4215621 C874.750692,67.115081 871.493964,70.5953093 866.896231,70.5953093 C862.298499,70.5953093 859.041771,67.115081 859.041771,62.4215621 C859.041771,57.7599719 862.298499,54.2797436 866.896231,54.2797436 Z M880.370143,62.3896334 C880.370143,65.5505747 881.998507,67.8813698 884.87209,67.8813698 C887.617958,67.8813698 889.310179,65.4867173 889.310179,62.325776 C889.310179,59.1648347 887.649886,56.9936831 884.904018,56.9936831 C882.15815,56.9936831 880.370143,59.2286921 880.370143,62.3896334 Z M889.342108,68.0410133 L889.342108,67.7855837 C888.607747,69.2543039 886.979384,70.5314519 884.584731,70.5314519 C880.082785,70.5314519 877.304988,66.9554375 877.304988,62.3896334 C877.304988,58.0473302 880.242428,54.343601 884.584731,54.343601 C887.298671,54.343601 888.767391,55.6846064 889.27825,56.9298257 L889.27825,47 L892.247619,47 L892.247619,67.2747245 C892.247619,68.7434447 892.375334,69.8609492 892.407263,70.1163788 L889.501751,70.1163788 C889.437894,69.7651631 889.342108,68.9669456 889.342108,68.0410133 Z M907.317966,68.2645142 C906.487819,69.8609492 904.572097,70.5953093 902.78409,70.5953093 C899.208076,70.5953093 897.036924,67.9132985 897.036924,64.4330702 L897.036924,54.7586741 L900.038222,54.7586741 L900.038222,63.9860684 C900.038222,66.0933626 900.996083,67.9452272 903.51845,67.9452272 C905.945032,67.9452272 907.158322,66.3487922 907.158322,64.0179971 L907.158322,54.7586741 L910.15962,54.7586741 L910.15962,67.2747245 C910.15962,68.4880151 910.255406,69.5735909 910.319263,70.1163788 L907.44568,70.1163788 C907.381823,69.7651631 907.317966,68.9030882 907.317966,68.2645142 Z M921.558166,57.0575405 C919.131585,57.0575405 916.896576,58.8455477 916.896576,62.4215621 C916.896576,65.9337191 919.099656,67.8175124 921.590095,67.8175124 C924.463678,67.8175124 925.517325,65.8698617 925.86854,64.6565711 L928.518622,65.8060043 C927.784262,68.0090846 925.581182,70.5953093 921.590095,70.5953093 C917.120077,70.5953093 913.83142,67.0831523 913.83142,62.4215621 C913.83142,57.6322571 917.183934,54.2797436 921.558166,54.2797436 C925.645039,54.2797436 927.752334,56.8340396 928.390908,59.1648347 L925.676968,60.3142679 C925.293824,58.813619 924.176319,57.0575405 921.558166,57.0575405 Z M936.053796,49.9055117 L936.053796,54.7586741 L939.37438,54.7586741 L939.37438,57.4726136 L936.053796,57.4726136 L936.053796,65.4547886 C936.053796,66.8596514 936.628512,67.5620828 938.193019,67.5620828 C938.576163,67.5620828 939.118951,67.4982254 939.37438,67.434368 L939.37438,69.988664 C939.118951,70.0844501 938.352662,70.2760223 937.330944,70.2760223 C934.71279,70.2760223 933.052498,68.6795873 933.052498,65.9017904 L933.052498,57.4726136 L930.115057,57.4726136 L930.115057,54.7586741 L930.945204,54.7586741 C932.605496,54.7586741 933.307927,53.7369557 933.307927,52.3959503 L933.307927,49.9055117 L936.053796,49.9055117 Z M647.482205,108.338582 L652.111866,108.338582 C656.294526,108.338582 659.806683,105.528856 659.806683,99.8455477 C659.806683,94.1303104 656.358384,91.2567274 652.175724,91.2567274 L647.482205,91.2567274 L647.482205,108.338582 Z M652.207653,111.116379 L644.353192,111.116379 L644.353192,88.4789305 L652.27151,88.4789305 C658.018676,88.4789305 663.031482,92.4061606 663.031482,99.8455477 C663.031482,107.253006 657.954819,111.116379 652.207653,111.116379 Z M668.97022,101.857056 L677.367468,101.857056 C677.303611,99.6539755 675.866819,97.9298257 673.15288,97.9298257 C670.630513,97.9298257 669.097935,99.8774764 668.97022,101.857056 Z M677.81447,105.848143 L680.400695,106.742147 C679.53862,109.456086 677.08011,111.595309 673.504095,111.595309 C669.385293,111.595309 665.77735,108.594011 665.77735,103.389633 C665.77735,98.5683997 669.257578,95.2797436 673.120951,95.2797436 C677.846399,95.2797436 680.496481,98.536471 680.496481,103.325776 C680.496481,103.70892 680.464552,104.092065 680.432623,104.283637 L668.874434,104.283637 C668.938291,107.029505 670.917871,108.945227 673.504095,108.945227 C675.994534,108.945227 677.239753,107.572293 677.81447,105.848143 Z M697.163262,95.7586741 L691.032952,111.116379 L687.999725,111.116379 L681.773629,95.7586741 L685.158071,95.7586741 L689.532303,107.604222 L693.938464,95.7586741 L697.163262,95.7586741 Z M701.505565,101.857056 L709.902814,101.857056 C709.838956,99.6539755 708.402165,97.9298257 705.688225,97.9298257 C703.165858,97.9298257 701.63328,99.8774764 701.505565,101.857056 Z M710.349815,105.848143 L712.93604,106.742147 C712.073965,109.456086 709.615455,111.595309 706.039441,111.595309 C701.920638,111.595309 698.312695,108.594011 698.312695,103.389633 C698.312695,98.5683997 701.792924,95.2797436 705.656296,95.2797436 C710.381744,95.2797436 713.031826,98.536471 713.031826,103.325776 C713.031826,103.70892 712.999897,104.092065 712.967969,104.283637 L701.409779,104.283637 C701.473637,107.029505 703.453216,108.945227 706.039441,108.945227 C708.529879,108.945227 709.775099,107.572293 710.349815,105.848143 Z M719.864568,111.116379 L716.86327,111.116379 L716.86327,88 L719.864568,88 L719.864568,111.116379 Z M731.550472,108.913298 C734.104768,108.913298 736.339777,106.997577 736.339777,103.421562 C736.339777,99.8774764 734.104768,97.9617544 731.550472,97.9617544 C728.996176,97.9617544 726.761167,99.8774764 726.761167,103.421562 C726.761167,106.997577 728.996176,108.913298 731.550472,108.913298 Z M731.550472,95.2797436 C736.148205,95.2797436 739.404932,98.7599719 739.404932,103.421562 C739.404932,108.115081 736.148205,111.595309 731.550472,111.595309 C726.952739,111.595309 723.696012,108.115081 723.696012,103.421562 C723.696012,98.7599719 726.952739,95.2797436 731.550472,95.2797436 Z M746.205745,117.182832 L743.236376,117.182832 L743.236376,95.7586741 L746.141888,95.7586741 L746.141888,98.1533266 C746.972034,96.620749 748.79197,95.4074584 751.282409,95.4074584 C755.880142,95.4074584 758.338651,98.9515441 758.338651,103.421562 C758.338651,107.987366 755.688569,111.531452 751.186623,111.531452 C748.823899,111.531452 747.035892,110.413947 746.205745,109.041013 L746.205745,117.182832 Z M755.273496,103.421562 C755.273496,100.356407 753.549346,98.0575405 750.739621,98.0575405 C747.993753,98.0575405 746.173817,100.356407 746.173817,103.421562 C746.173817,106.582503 747.993753,108.849441 750.739621,108.849441 C753.517418,108.849441 755.273496,106.582503 755.273496,103.421562 Z M765.139465,111.116379 L762.170095,111.116379 L762.170095,95.7586741 L765.043678,95.7586741 L765.043678,97.8021109 C766.001539,96.1098898 767.917261,95.3116723 769.705269,95.3116723 C771.620991,95.3116723 773.472855,96.2376046 774.303001,98.217184 C775.516292,96.0141037 777.495871,95.3116723 779.443522,95.3116723 C782.125533,95.3116723 784.743686,97.1316082 784.743686,101.154624 L784.743686,111.116379 L781.774317,111.116379 L781.774317,101.473911 C781.774317,99.4624033 780.784527,97.9617544 778.51759,97.9617544 C776.410296,97.9617544 774.973504,99.6220468 774.973504,101.825127 L774.973504,111.116379 L771.972206,111.116379 L771.972206,101.473911 C771.972206,99.494332 771.014345,97.9617544 768.715479,97.9617544 C766.576256,97.9617544 765.139465,99.5581894 765.139465,101.857056 L765.139465,111.116379 Z M791.480642,101.857056 L799.87789,101.857056 C799.814033,99.6539755 798.377241,97.9298257 795.663302,97.9298257 C793.140934,97.9298257 791.608357,99.8774764 791.480642,101.857056 Z M800.324892,105.848143 L802.911117,106.742147 C802.049042,109.456086 799.590532,111.595309 796.014517,111.595309 C791.895715,111.595309 788.287772,108.594011 788.287772,103.389633 C788.287772,98.5683997 791.768,95.2797436 795.631373,95.2797436 C800.356821,95.2797436 803.006903,98.536471 803.006903,103.325776 C803.006903,103.70892 802.974974,104.092065 802.943045,104.283637 L791.384856,104.283637 C791.448713,107.029505 793.428293,108.945227 796.014517,108.945227 C798.504956,108.945227 799.750175,107.572293 800.324892,105.848143 Z M809.839645,102.2402 L809.839645,111.116379 L806.838347,111.116379 L806.838347,95.7586741 L809.775787,95.7586741 L809.775787,97.9617544 C810.893292,96.0460324 812.713227,95.3116723 814.501235,95.3116723 C818.173035,95.3116723 819.992971,97.9617544 819.992971,101.378125 L819.992971,111.116379 L816.991673,111.116379 L816.991673,101.888984 C816.991673,99.7497616 816.09767,98.0256118 813.415659,98.0256118 C811.052935,98.0256118 809.839645,99.9094051 809.839645,102.2402 Z M828.805292,90.9055117 L828.805292,95.7586741 L832.125877,95.7586741 L832.125877,98.4726136 L828.805292,98.4726136 L828.805292,106.454789 C828.805292,107.859651 829.380009,108.562083 830.944515,108.562083 C831.32766,108.562083 831.870447,108.498225 832.125877,108.434368 L832.125877,110.988664 C831.870447,111.08445 831.104159,111.276022 830.08244,111.276022 C827.464287,111.276022 825.803995,109.679587 825.803995,106.90179 L825.803995,98.4726136 L822.866554,98.4726136 L822.866554,95.7586741 L823.6967,95.7586741 C825.356993,95.7586741 826.059424,94.7369557 826.059424,93.3959503 L826.059424,90.9055117 L828.805292,90.9055117 Z M858.850199,93.6194512 L856.040473,94.6092409 C855.785044,92.9808772 854.41211,90.7458682 851.251168,90.7458682 C848.696872,90.7458682 846.876937,92.4061606 846.876937,94.5134548 C846.876937,96.1418185 847.866726,97.3870378 849.782448,97.8021109 L853.16689,98.536471 C856.934477,99.3666172 859.041771,101.729341 859.041771,104.890282 C859.041771,108.402439 856.040473,111.595309 851.21924,111.595309 C845.759432,111.595309 843.173207,108.083152 842.758134,104.858354 L845.759432,103.900493 C845.982933,106.42286 847.77094,108.753655 851.187311,108.753655 C854.316324,108.753655 855.848901,107.125291 855.848901,105.145712 C855.848901,103.517348 854.731397,102.112485 852.464459,101.633555 L849.23966,100.931123 C846.014862,100.228692 843.715995,98.1213979 843.715995,94.7369557 C843.715995,91.19287 847.004651,88 851.187311,88 C856.295903,88 858.33934,91.1609413 858.850199,93.6194512 Z M866.736588,90.9055117 L866.736588,95.7586741 L870.057173,95.7586741 L870.057173,98.4726136 L866.736588,98.4726136 L866.736588,106.454789 C866.736588,107.859651 867.311305,108.562083 868.875811,108.562083 C869.258955,108.562083 869.801743,108.498225 870.057173,108.434368 L870.057173,110.988664 C869.801743,111.08445 869.035454,111.276022 868.013736,111.276022 C865.395583,111.276022 863.73529,109.679587 863.73529,106.90179 L863.73529,98.4726136 L860.79785,98.4726136 L860.79785,95.7586741 L861.627996,95.7586741 C863.288288,95.7586741 863.99072,94.7369557 863.99072,93.3959503 L863.99072,90.9055117 L866.736588,90.9055117 Z M884.169658,109.264514 C883.339512,110.860949 881.42379,111.595309 879.635783,111.595309 C876.059768,111.595309 873.888617,108.913298 873.888617,105.43307 L873.888617,95.7586741 L876.889915,95.7586741 L876.889915,104.986068 C876.889915,107.093363 877.847775,108.945227 880.370143,108.945227 C882.796724,108.945227 884.010015,107.348792 884.010015,105.017997 L884.010015,95.7586741 L887.011312,95.7586741 L887.011312,108.274724 C887.011312,109.488015 887.107098,110.573591 887.170956,111.116379 L884.297373,111.116379 C884.233516,110.765163 884.169658,109.903088 884.169658,109.264514 Z M893.748268,103.389633 C893.748268,106.550575 895.376632,108.88137 898.250215,108.88137 C900.996083,108.88137 902.688304,106.486717 902.688304,103.325776 C902.688304,100.164835 901.028012,97.9936831 898.282144,97.9936831 C895.536275,97.9936831 893.748268,100.228692 893.748268,103.389633 Z M902.720233,109.041013 L902.720233,108.785584 C901.985873,110.254304 900.357509,111.531452 897.962857,111.531452 C893.46091,111.531452 890.683113,107.955437 890.683113,103.389633 C890.683113,99.0473302 893.620553,95.343601 897.962857,95.343601 C900.676796,95.343601 902.145516,96.6846064 902.656375,97.9298257 L902.656375,88 L905.625744,88 L905.625744,108.274724 C905.625744,109.743445 905.753459,110.860949 905.785388,111.116379 L902.879876,111.116379 C902.816019,110.765163 902.720233,109.966946 902.720233,109.041013 Z M913.703706,111.116379 L910.734336,111.116379 L910.734336,95.7586741 L913.703706,95.7586741 L913.703706,111.116379 Z M910.063834,89.9476507 C910.063834,88.7343601 911.021695,87.7764991 912.203057,87.7764991 C913.416347,87.7764991 914.374208,88.7343601 914.374208,89.9476507 C914.374208,91.1290126 913.416347,92.0868736 912.203057,92.0868736 C911.021695,92.0868736 910.063834,91.1290126 910.063834,89.9476507 Z M925.38961,108.913298 C927.943906,108.913298 930.178915,106.997577 930.178915,103.421562 C930.178915,99.8774764 927.943906,97.9617544 925.38961,97.9617544 C922.835314,97.9617544 920.600305,99.8774764 920.600305,103.421562 C920.600305,106.997577 922.835314,108.913298 925.38961,108.913298 Z M925.38961,95.2797436 C929.987343,95.2797436 933.24407,98.7599719 933.24407,103.421562 C933.24407,108.115081 929.987343,111.595309 925.38961,111.595309 C920.791877,111.595309 917.53515,108.115081 917.53515,103.421562 C917.53515,98.7599719 920.791877,95.2797436 925.38961,95.2797436 Z" id="Shape" fill="#231F20"></path>
            </g>
        </g>
    </g>
</svg>