<?xml version="1.0" encoding="UTF-8"?>
<svg width="319px" height="60px" viewBox="0 0 319 60" version="1.1" xmlns="http://www.w3.org/2000/svg" xmlns:xlink="http://www.w3.org/1999/xlink">
    <!-- Generator: Sketch 53.2 (72643) - https://sketchapp.com -->
    <title>Generate Logo &amp; Wordmark</title>
    <desc>Created with Sketch.</desc>
    <defs>
        <polygon id="path-1" points="0 0.164033898 45.6876271 0.164033898 45.6876271 41.8064068 0 41.8064068"></polygon>
        <polygon id="path-3" points="0.0746440678 0.078779661 0.574644068 0.078779661 0.574644068 54.9152542 0.0746440678 54.9152542"></polygon>
    </defs>
    <g id="Symbols" stroke="none" stroke-width="1" fill="none" fill-rule="evenodd">
        <g id="Footer-+-Sock---HiFi" transform="translate(-61.000000, -511.000000)">
            <g id="footer-+-sock---contained">
                <g id="footer-+-sock" transform="translate(-177.000000, 0.000000)">
                    <g id="footer" transform="translate(177.000000, 448.000000)">
                        <g id="content" transform="translate(61.000000, 63.000000)">
                            <g id="Generate-Logo-&amp;-Wordmark">
                                <g id="Group-4">
                                    <g id="Group-20" transform="translate(0.000000, 0.258983)">
                                        <path d="M32.5875593,28.5372881 C32.5875593,33.4023729 28.6431525,37.3461017 23.7784068,37.3461017 C18.9126441,37.3461017 14.9685763,33.4023729 14.9685763,28.5372881 C14.9685763,23.6718644 18.9126441,19.7281356 23.7784068,19.7281356 C28.6431525,19.7281356 32.5875593,23.6718644 32.5875593,28.5372881" id="Fill-1" fill="#26A9E0"></path>
                                        <path d="M32.5875593,28.5372881 C32.5875593,33.4023729 28.6431525,37.3461017 23.7784068,37.3461017 C18.9126441,37.3461017 14.9685763,33.4023729 14.9685763,28.5372881 C14.9685763,23.6718644 18.9126441,19.7281356 23.7784068,19.7281356 C28.6431525,19.7281356 32.5875593,23.6718644 32.5875593,28.5372881 Z" id="Stroke-3" stroke="#26A9E0"></path>
                                        <path d="M47.188339,11.7511864 C43.9269831,7.21016949 39.3764746,3.65762712 34.0734237,1.62745763 L29.3324068,15.3891525 C31.5734237,16.3362712 33.5215593,17.840678 35.0049492,19.7274576 L47.188339,11.7511864 Z" id="Fill-5" fill="#26A9E0"></path>
                                        <path d="M47.188339,11.7511864 C43.9269831,7.21016949 39.3764746,3.65762712 34.0734237,1.62745763 L29.3324068,15.3891525 C31.5734237,16.3362712 33.5215593,17.840678 35.0049492,19.7274576 L47.188339,11.7511864 Z" id="Stroke-7" stroke="#26A9E0"></path>
                                        <path d="M51.6947458,34.8563051 C52.7961017,29.3752881 52.2954237,23.6237627 50.1672881,18.3590169 L36.8649153,24.2664746 C37.6981356,26.5525763 37.9252542,29.0027458 37.5547458,31.3735932 L51.6947458,34.8563051 Z" id="Fill-9" fill="#26A9E0"></path>
                                        <path d="M51.6947458,34.8563051 C52.7961017,29.3752881 52.2954237,23.6237627 50.1672881,18.3590169 L36.8649153,24.2664746 C37.6981356,26.5525763 37.9252542,29.0027458 37.5547458,31.3735932 L51.6947458,34.8563051 Z" id="Stroke-11" stroke="#26A9E0"></path>
                                        <path d="M27.2030508,0.48579661 C21.6576271,-0.227423729 15.9559322,0.676305085 10.8528814,3.16816949 L17.680339,16.0227458 C19.9020339,15.0308814 22.3308475,14.6325763 24.7220339,14.8363051 L27.2030508,0.48579661 Z" id="Fill-13" fill="#26A9E0"></path>
                                        <path d="M27.2030508,0.48579661 C21.6576271,-0.227423729 15.9559322,0.676305085 10.8528814,3.16816949 L17.680339,16.0227458 C19.9020339,15.0308814 22.3308475,14.6325763 24.7220339,14.8363051 L27.2030508,0.48579661 Z" id="Stroke-15" stroke="#26A9E0"></path>
                                        <g id="Group-19" transform="translate(0.000000, 10.508475)">
                                            <mask id="mask-2" fill="white">
                                                <use xlink:href="#path-1"></use>
                                            </mask>
                                            <g id="Clip-18"></g>
                                            <path d="M8.08559322,0.164033898 C3.12864407,4.52166102 -0.000169491525,10.9101356 -0.000169491525,18.0287797 C-0.000169491525,31.161322 10.6455932,41.8064068 23.7777966,41.8064068 C33.6269492,41.8064068 42.0774576,35.8182712 45.6876271,27.2843729 L36.4689831,25.0121695 C34.0035593,29.4833559 29.2442373,32.5114915 23.7777966,32.5114915 C15.7791525,32.5114915 9.29542373,26.0270847 9.29542373,18.0287797 C9.29542373,14.0603051 10.8913559,10.4647119 13.4767797,7.84911864 L8.08559322,0.164033898 Z" id="Fill-17" fill="#231F20" mask="url(#mask-2)"></path>
                                        </g>
                                    </g>
                                    <g id="Group-3" transform="translate(68.813559, 11.864407)" fill="#231F20">
                                        <path d="M0.294327051,19.5990168 L3.81609519,18.6598787 C4.0802278,20.2446743 5.34219471,21.389249 7.19112298,21.389249 C9.65636068,21.389249 11.0357199,20.1566301 11.0357199,17.3685637 L11.0357199,16.3120332 C10.4487585,17.2511714 9.09874739,18.1609615 7.01503458,18.1609615 C3.17043769,18.1609615 0.294327051,15.1968067 0.294327051,11.1467733 C0.294327051,7.33152449 3.05304542,4.10323703 7.01503458,4.10323703 C9.30418386,4.10323703 10.6248469,5.10107134 11.1237641,6.06955758 L11.1237641,4.36736964 L14.8803167,4.36736964 L14.8803167,17.2511714 C14.8803167,21.2131606 12.7379078,24.8229729 7.30851525,24.8229729 C3.3465261,24.8229729 0.7052,22.3577352 0.294327051,19.5990168 Z M7.69004014,14.8152818 C9.68570875,14.8152818 11.094416,13.3772265 11.094416,11.1467733 C11.094416,8.91632015 9.56831647,7.5076129 7.69004014,7.5076129 C5.75306766,7.5076129 4.22696814,8.91632015 4.22696814,11.1467733 C4.22696814,13.4065745 5.66502346,14.8152818 7.69004014,14.8152818 Z M21.6890685,9.94350253 L28.1456434,9.94350253 C28.0869473,8.5054472 27.1478091,7.09673995 24.9173559,7.09673995 C22.8923393,7.09673995 21.7771127,8.62283948 21.6890685,9.94350253 Z M28.5271683,13.7000552 L31.7848038,14.6685414 C31.0511021,17.1631272 28.7619528,19.24684 25.2108366,19.24684 C21.2488475,19.24684 17.7564274,16.4000774 17.7564274,11.5282982 C17.7564274,6.92065154 21.1608033,3.92714863 24.8586598,3.92714863 C29.3195661,3.92714863 31.9902403,6.7739112 31.9902403,11.4109059 C31.9902403,11.9685192 31.9315441,12.5554806 31.9315441,12.6141767 L21.6010243,12.6141767 C21.6890685,14.5218011 23.3032122,15.9011603 25.2401847,15.9011603 C27.0597649,15.9011603 28.0575992,14.9913702 28.5271683,13.7000552 Z M38.9750804,10.5011158 L38.9750804,18.806619 L35.0717874,18.806619 L35.0717874,4.36736964 L38.8576881,4.36736964 L38.8576881,6.15760178 C39.7381302,4.66085032 41.4696662,3.98584476 43.0251138,3.98584476 C46.605578,3.98584476 48.2490698,6.53912666 48.2490698,9.70871798 L48.2490698,18.806619 L44.3457768,18.806619 L44.3457768,10.3837235 C44.3457768,8.76957981 43.553379,7.5076129 41.6751026,7.5076129 C39.9729147,7.5076129 38.9750804,8.82827595 38.9750804,10.5011158 Z M55.0578216,9.94350253 L61.5143965,9.94350253 C61.4557003,8.5054472 60.5165622,7.09673995 58.286109,7.09673995 C56.2610923,7.09673995 55.1458658,8.62283948 55.0578216,9.94350253 Z M61.8959214,13.7000552 L65.1535569,14.6685414 C64.4198552,17.1631272 62.1307059,19.24684 58.5795897,19.24684 C54.6176005,19.24684 51.1251805,16.4000774 51.1251805,11.5282982 C51.1251805,6.92065154 54.5295563,3.92714863 58.2274129,3.92714863 C62.6883192,3.92714863 65.3589934,6.7739112 65.3589934,11.4109059 C65.3589934,11.9685192 65.3002972,12.5554806 65.3002972,12.6141767 L54.9697774,12.6141767 C55.0578216,14.5218011 56.6719653,15.9011603 58.6089378,15.9011603 C60.428518,15.9011603 61.4263523,14.9913702 61.8959214,13.7000552 Z M77.2449608,4.30867351 L77.2449608,8.24131459 C76.8047398,8.15327039 76.4232149,8.12392232 76.0710381,8.12392232 C74.0753695,8.12392232 72.3438335,9.09240856 72.3438335,12.2033037 L72.3438335,18.806619 L68.4405405,18.806619 L68.4405405,4.36736964 L72.2264412,4.36736964 L72.2264412,6.50977859 C73.1068833,4.60215419 75.1025519,4.24997737 76.3351707,4.24997737 C76.6579995,4.24997737 76.9514801,4.27932544 77.2449608,4.30867351 Z" id="gener"></path>
                                        <path d="M79.2112814,14.8739779 C79.2112814,12.2913479 81.1189058,10.8532926 83.5254473,10.5011158 L87.0765635,9.97285059 C87.8983094,9.85545832 88.162442,9.44458537 88.162442,8.94566822 C88.162442,7.91848585 87.3700442,7.06739188 85.7265524,7.06739188 C84.0243645,7.06739188 83.0852263,8.15327039 82.967834,9.41523731 L79.504762,8.68153561 C79.7395466,6.42173439 81.8232594,3.92714863 85.6972043,3.92714863 C90.2755029,3.92714863 91.9776908,6.50977859 91.9776908,9.41523731 L91.9776908,16.5174697 C91.9776908,17.2805195 92.0657351,18.3077018 92.1537793,18.806619 L88.573315,18.806619 C88.4852708,18.4250941 88.4265746,17.6326963 88.4265746,17.075083 C87.6928729,18.2196576 86.3135138,19.2174919 84.1711048,19.2174919 C81.0895577,19.2174919 79.2112814,17.1337791 79.2112814,14.8739779 Z M84.9928507,16.3120332 C86.6363425,16.3120332 88.162442,15.5196354 88.162442,12.9663535 L88.162442,12.320696 L84.9048065,12.8196132 C83.9069722,12.9663535 83.1145744,13.5239668 83.1145744,14.6391934 C83.1145744,15.4902873 83.7308838,16.3120332 84.9928507,16.3120332 Z M100.634693,0.0532036787 L100.634693,4.36736964 L103.540152,4.36736964 L103.540152,7.83044164 L100.634693,7.83044164 L100.634693,13.8761436 C100.634693,15.1381105 101.221654,15.5489835 102.336881,15.5489835 C102.80645,15.5489835 103.334715,15.4902873 103.540152,15.4315912 L103.540152,18.6598787 C103.187975,18.806619 102.483621,19.0120555 101.339047,19.0120555 C98.521632,19.0120555 96.7607479,17.3392156 96.7607479,14.5511492 L96.7607479,7.83044164 L94.1487699,7.83044164 L94.1487699,4.36736964 L94.8824716,4.36736964 C96.4085711,4.36736964 97.1129247,3.36953534 97.1129247,2.07822036 L97.1129247,0.0532036787 L100.634693,0.0532036787 Z M109.555828,9.94350253 L116.012402,9.94350253 C115.953706,8.5054472 115.014568,7.09673995 112.784115,7.09673995 C110.759098,7.09673995 109.643872,8.62283948 109.555828,9.94350253 Z M116.393927,13.7000552 L119.651563,14.6685414 C118.917861,17.1631272 116.628712,19.24684 113.077596,19.24684 C109.115607,19.24684 105.623186,16.4000774 105.623186,11.5282982 C105.623186,6.92065154 109.027562,3.92714863 112.725419,3.92714863 C117.186325,3.92714863 119.856999,6.7739112 119.856999,11.4109059 C119.856999,11.9685192 119.798303,12.5554806 119.798303,12.6141767 L109.467783,12.6141767 C109.555828,14.5218011 111.169971,15.9011603 113.106944,15.9011603 C114.926524,15.9011603 115.924358,14.9913702 116.393927,13.7000552 Z" id="ate"></path>
                                    </g>
                                    <g id="Group-23" transform="translate(203.389831, 5.004746)">
                                        <mask id="mask-4" fill="white">
                                            <use xlink:href="#path-3"></use>
                                        </mask>
                                        <g id="Clip-22"></g>
                                        <path d="M0.0746440678,0.078779661 L0.0746440678,54.9153898" id="Stroke-21" stroke="#231F20" mask="url(#mask-4)"></path>
                                    </g>
                                    <path d="M223.316937,17.8371021 L222.364488,18.172624 C222.277902,17.6206363 221.8125,16.8630062 220.740995,16.8630062 C219.875132,16.8630062 219.258204,17.4258172 219.258204,18.1401542 C219.258204,18.6921419 219.593726,19.1142501 220.243123,19.2549528 L221.390392,19.5038885 C222.66754,19.785294 223.381877,20.5862173 223.381877,21.6577228 C223.381877,22.8482845 222.364488,23.9306133 220.730171,23.9306133 C218.879389,23.9306133 218.002703,22.7400516 217.862,21.6468995 L218.879389,21.3222009 C218.955152,22.1772406 219.561256,22.9673407 220.719348,22.9673407 C221.78003,22.9673407 222.299548,22.415353 222.299548,21.7443091 C222.299548,21.1923214 221.920733,20.7160967 221.15228,20.5537474 L220.059127,20.3156351 C218.965975,20.0775227 218.186699,19.3631857 218.186699,18.2159172 C218.186699,17.0145322 219.301497,15.9322034 220.719348,15.9322034 C222.451074,15.9322034 223.143765,17.0037089 223.316937,17.8371021 Z M225.990289,16.9171226 L225.990289,18.5622624 L227.115911,18.5622624 L227.115911,19.4822419 L225.990289,19.4822419 L225.990289,22.1880639 C225.990289,22.6642886 226.185109,22.9024009 226.71545,22.9024009 C226.845329,22.9024009 227.029325,22.8807544 227.115911,22.8591078 L227.115911,23.7249708 C227.029325,23.7574407 226.769566,23.8223804 226.423221,23.8223804 C225.535711,23.8223804 224.9729,23.281216 224.9729,22.33959 L224.9729,19.4822419 L223.977158,19.4822419 L223.977158,18.5622624 L224.258563,18.5622624 C224.821374,18.5622624 225.059487,18.2159172 225.059487,17.7613391 L225.059487,16.9171226 L225.990289,16.9171226 Z M231.899805,23.1405133 C231.618399,23.6816777 230.969002,23.9306133 230.362898,23.9306133 C229.15069,23.9306133 228.414706,23.0214571 228.414706,21.8417187 L228.414706,18.5622624 L229.432095,18.5622624 L229.432095,21.6901927 C229.432095,22.4045297 229.756794,23.0322804 230.611833,23.0322804 C231.434403,23.0322804 231.845688,22.491116 231.845688,21.701016 L231.845688,18.5622624 L232.863077,18.5622624 L232.863077,22.8049914 C232.863077,23.2162763 232.895547,23.5842681 232.917194,23.768264 L231.943098,23.768264 C231.921451,23.6492078 231.899805,23.3569791 231.899805,23.1405133 Z M235.146791,21.1490283 C235.146791,22.2205338 235.698779,23.0106338 236.672875,23.0106338 C237.603678,23.0106338 238.177312,22.1988872 238.177312,21.1273817 C238.177312,20.0558762 237.614501,19.3198926 236.683698,19.3198926 C235.752895,19.3198926 235.146791,20.0775227 235.146791,21.1490283 Z M238.188135,23.0647503 L238.188135,22.978164 C237.939199,23.4760352 237.387212,23.9089667 236.575465,23.9089667 C235.049382,23.9089667 234.107755,22.6967585 234.107755,21.1490283 C234.107755,19.6770611 235.103498,18.4215597 236.575465,18.4215597 C237.495445,18.4215597 237.993316,18.8761378 238.166489,19.298246 L238.166489,15.9322034 L239.173054,15.9322034 L239.173054,22.8049914 C239.173054,23.3028626 239.216347,23.6816777 239.227171,23.768264 L238.242252,23.768264 C238.220605,23.6492078 238.188135,23.3786256 238.188135,23.0647503 Z M241.565001,20.6295104 L244.411526,20.6295104 C244.389879,19.8827036 243.902831,19.298246 242.982852,19.298246 C242.127812,19.298246 241.608294,19.9584666 241.565001,20.6295104 Z M244.563052,21.9824215 L245.439738,22.2854735 C245.147509,23.205453 244.314116,23.9306133 243.101908,23.9306133 C241.705704,23.9306133 240.482672,22.9132242 240.482672,21.1490283 C240.482672,19.5147118 241.662411,18.3999131 242.972028,18.3999131 C244.573875,18.3999131 245.472208,19.5038885 245.472208,21.1273817 C245.472208,21.2572612 245.461385,21.3871406 245.450561,21.4520803 L241.532531,21.4520803 C241.554178,22.3828831 242.225222,23.0322804 243.101908,23.0322804 C243.946124,23.0322804 244.368233,22.566879 244.563052,21.9824215 Z M247.788392,20.7593899 L247.788392,23.768264 L246.771003,23.768264 L246.771003,18.5622624 L247.766745,18.5622624 L247.766745,19.3090693 C248.14556,18.659672 248.762488,18.4107364 249.368592,18.4107364 C250.61327,18.4107364 251.230197,19.3090693 251.230197,20.4671611 L251.230197,23.768264 L250.212808,23.768264 L250.212808,20.6403337 C250.212808,19.9151734 249.909756,19.3307159 249.0006,19.3307159 C248.199677,19.3307159 247.788392,19.9692899 247.788392,20.7593899 Z M254.217425,16.9171226 L254.217425,18.5622624 L255.343047,18.5622624 L255.343047,19.4822419 L254.217425,19.4822419 L254.217425,22.1880639 C254.217425,22.6642886 254.412244,22.9024009 254.942585,22.9024009 C255.072465,22.9024009 255.256461,22.8807544 255.343047,22.8591078 L255.343047,23.7249708 C255.256461,23.7574407 254.996702,23.8223804 254.650356,23.8223804 C253.762847,23.8223804 253.200036,23.281216 253.200036,22.33959 L253.200036,19.4822419 L252.204293,19.4822419 L252.204293,18.5622624 L252.485699,18.5622624 C253.04851,18.5622624 253.286622,18.2159172 253.286622,17.7613391 L253.286622,16.9171226 L254.217425,16.9171226 Z M259.250254,21.1057351 L256.317143,21.1057351 L256.317143,20.2182255 L259.250254,20.2182255 L259.250254,21.1057351 Z M265.397881,23.768264 L260.711398,23.768264 L260.711398,16.0945527 L261.77208,16.0945527 L261.77208,22.7725215 L265.397881,22.7725215 L265.397881,23.768264 Z M267.140431,20.6295104 L269.986956,20.6295104 C269.965309,19.8827036 269.478261,19.298246 268.558282,19.298246 C267.703242,19.298246 267.183724,19.9584666 267.140431,20.6295104 Z M270.138482,21.9824215 L271.015168,22.2854735 C270.722939,23.205453 269.889546,23.9306133 268.677338,23.9306133 C267.281134,23.9306133 266.058102,22.9132242 266.058102,21.1490283 C266.058102,19.5147118 267.23784,18.3999131 268.547458,18.3999131 C270.149305,18.3999131 271.047638,19.5038885 271.047638,21.1273817 C271.047638,21.2572612 271.036815,21.3871406 271.025991,21.4520803 L267.107961,21.4520803 C267.129608,22.3828831 267.800651,23.0322804 268.677338,23.0322804 C269.521554,23.0322804 269.943663,22.566879 270.138482,21.9824215 Z M272.952537,21.1490283 C272.952537,22.2205338 273.504524,23.0106338 274.47862,23.0106338 C275.409423,23.0106338 275.983057,22.1988872 275.983057,21.1273817 C275.983057,20.0558762 275.420246,19.3198926 274.489444,19.3198926 C273.558641,19.3198926 272.952537,20.0775227 272.952537,21.1490283 Z M275.993881,23.0647503 L275.993881,22.978164 C275.744945,23.4760352 275.192957,23.9089667 274.381211,23.9089667 C272.855127,23.9089667 271.913501,22.6967585 271.913501,21.1490283 C271.913501,19.6770611 272.909243,18.4215597 274.381211,18.4215597 C275.30119,18.4215597 275.799061,18.8761378 275.972234,19.298246 L275.972234,15.9322034 L276.9788,15.9322034 L276.9788,22.8049914 C276.9788,23.3028626 277.022093,23.6816777 277.032916,23.768264 L276.047997,23.768264 C276.02635,23.6492078 275.993881,23.3786256 275.993881,23.0647503 Z M282.585263,19.6770611 L284.12217,19.6770611 C285.042149,19.6770611 285.60496,19.1683665 285.60496,18.3782665 C285.60496,17.5665199 285.042149,17.0470021 284.12217,17.0470021 L282.585263,17.0470021 L282.585263,19.6770611 Z M284.316989,20.6295104 L282.585263,20.6295104 L282.585263,23.768264 L281.524581,23.768264 L281.524581,16.0945527 L284.316989,16.0945527 C285.73484,16.0945527 286.687289,17.0794719 286.687289,18.3674432 C286.687289,19.6662378 285.73484,20.6295104 284.316989,20.6295104 Z M290.60532,18.508146 L290.60532,19.5904748 C290.453794,19.5688282 290.302267,19.5580049 290.161565,19.5580049 C289.306525,19.5580049 288.732891,20.012583 288.732891,21.1598516 L288.732891,23.768264 L287.715502,23.768264 L287.715502,18.5622624 L288.711244,18.5622624 L288.711244,19.4714186 C289.090059,18.6704953 289.739457,18.4756761 290.269798,18.4756761 C290.4105,18.4756761 290.551203,18.4973227 290.60532,18.508146 Z M293.863129,23.0214571 C294.728992,23.0214571 295.486623,22.3720598 295.486623,21.1598516 C295.486623,19.9584666 294.728992,19.3090693 293.863129,19.3090693 C292.997266,19.3090693 292.239636,19.9584666 292.239636,21.1598516 C292.239636,22.3720598 292.997266,23.0214571 293.863129,23.0214571 Z M293.863129,18.3999131 C295.421683,18.3999131 296.525658,19.5796515 296.525658,21.1598516 C296.525658,22.7508749 295.421683,23.9306133 293.863129,23.9306133 C292.304576,23.9306133 291.2006,22.7508749 291.2006,21.1598516 C291.2006,19.5796515 292.304576,18.3999131 293.863129,18.3999131 Z M298.430557,21.1490283 C298.430557,22.2205338 298.982545,23.0106338 299.956641,23.0106338 C300.887443,23.0106338 301.461078,22.1988872 301.461078,21.1273817 C301.461078,20.0558762 300.898267,19.3198926 299.967464,19.3198926 C299.036661,19.3198926 298.430557,20.0775227 298.430557,21.1490283 Z M301.471901,23.0647503 L301.471901,22.978164 C301.222965,23.4760352 300.670978,23.9089667 299.859231,23.9089667 C298.333147,23.9089667 297.391521,22.6967585 297.391521,21.1490283 C297.391521,19.6770611 298.387264,18.4215597 299.859231,18.4215597 C300.77921,18.4215597 301.277082,18.8761378 301.450254,19.298246 L301.450254,15.9322034 L302.45682,15.9322034 L302.45682,22.8049914 C302.45682,23.3028626 302.500113,23.6816777 302.510937,23.768264 L301.526017,23.768264 C301.504371,23.6492078 301.471901,23.3786256 301.471901,23.0647503 Z M307.565412,23.1405133 C307.284007,23.6816777 306.634609,23.9306133 306.028505,23.9306133 C304.816297,23.9306133 304.080313,23.0214571 304.080313,21.8417187 L304.080313,18.5622624 L305.097702,18.5622624 L305.097702,21.6901927 C305.097702,22.4045297 305.422401,23.0322804 306.277441,23.0322804 C307.100011,23.0322804 307.511296,22.491116 307.511296,21.701016 L307.511296,18.5622624 L308.528685,18.5622624 L308.528685,22.8049914 C308.528685,23.2162763 308.561155,23.5842681 308.582801,23.768264 L307.608705,23.768264 C307.587059,23.6492078 307.565412,23.3569791 307.565412,23.1405133 Z M312.392599,19.3415392 C311.570029,19.3415392 310.812399,19.9476433 310.812399,21.1598516 C310.812399,22.3504133 311.559205,22.9889873 312.403422,22.9889873 C313.377518,22.9889873 313.734686,22.3287667 313.853742,21.9174817 L314.752075,22.3071201 C314.50314,23.053927 313.756333,23.9306133 312.403422,23.9306133 C310.888162,23.9306133 309.773363,22.7400516 309.773363,21.1598516 C309.773363,19.5363583 310.909808,18.3999131 312.392599,18.3999131 C313.777979,18.3999131 314.492316,19.2657761 314.708782,20.0558762 L313.788803,20.4455145 C313.658923,19.93682 313.280108,19.3415392 312.392599,19.3415392 Z M317.306371,16.9171226 L317.306371,18.5622624 L318.431993,18.5622624 L318.431993,19.4822419 L317.306371,19.4822419 L317.306371,22.1880639 C317.306371,22.6642886 317.501191,22.9024009 318.031532,22.9024009 C318.161411,22.9024009 318.345407,22.8807544 318.431993,22.8591078 L318.431993,23.7249708 C318.345407,23.7574407 318.085648,23.8223804 317.739303,23.8223804 C316.851793,23.8223804 316.288982,23.281216 316.288982,22.33959 L316.288982,19.4822419 L315.29324,19.4822419 L315.29324,18.5622624 L315.574645,18.5622624 C316.137456,18.5622624 316.375569,18.2159172 316.375569,17.7613391 L316.375569,16.9171226 L317.306371,16.9171226 Z M219.485493,36.724943 L221.05487,36.724943 C222.472721,36.724943 223.663282,35.7724937 223.663282,33.8459484 C223.663282,31.9085798 222.494367,30.9344839 221.076517,30.9344839 L219.485493,30.9344839 L219.485493,36.724943 Z M221.08734,37.6665691 L218.424811,37.6665691 L218.424811,29.9928578 L221.108986,29.9928578 C223.057178,29.9928578 224.756435,31.3241222 224.756435,33.8459484 C224.756435,36.3569512 223.035532,37.6665691 221.08734,37.6665691 Z M226.769566,34.5278155 L229.616091,34.5278155 C229.594444,33.7810086 229.107396,33.1965511 228.187417,33.1965511 C227.332377,33.1965511 226.812859,33.8567717 226.769566,34.5278155 Z M229.767617,35.8807265 L230.644303,36.1837786 C230.352075,37.1037581 229.518681,37.8289184 228.306473,37.8289184 C226.910269,37.8289184 225.687237,36.8115293 225.687237,35.0473334 C225.687237,33.4130168 226.866976,32.2982182 228.176594,32.2982182 C229.77844,32.2982182 230.676773,33.4021936 230.676773,35.0256868 C230.676773,35.1555662 230.66595,35.2854457 230.655127,35.3503854 L226.737096,35.3503854 C226.758743,36.2811882 227.429787,36.9305855 228.306473,36.9305855 C229.15069,36.9305855 229.572798,36.4651841 229.767617,35.8807265 Z M236.32653,32.4605675 L234.248458,37.6665691 L233.220246,37.6665691 L231.109705,32.4605675 L232.256973,32.4605675 L233.739764,36.4760074 L235.233377,32.4605675 L236.32653,32.4605675 Z M237.798497,34.5278155 L240.645022,34.5278155 C240.623375,33.7810086 240.136327,33.1965511 239.216347,33.1965511 C238.361308,33.1965511 237.84179,33.8567717 237.798497,34.5278155 Z M240.796548,35.8807265 L241.673234,36.1837786 C241.381005,37.1037581 240.547612,37.8289184 239.335404,37.8289184 C237.939199,37.8289184 236.716168,36.8115293 236.716168,35.0473334 C236.716168,33.4130168 237.895906,32.2982182 239.205524,32.2982182 C240.807371,32.2982182 241.705704,33.4021936 241.705704,35.0256868 C241.705704,35.1555662 241.69488,35.2854457 241.684057,35.3503854 L237.766027,35.3503854 C237.787673,36.2811882 238.458717,36.9305855 239.335404,36.9305855 C240.17962,36.9305855 240.601728,36.4651841 240.796548,35.8807265 Z M244.021887,37.6665691 L243.004498,37.6665691 L243.004498,29.8305085 L244.021887,29.8305085 L244.021887,37.6665691 Z M247.983211,36.9197622 C248.849074,36.9197622 249.606704,36.2703649 249.606704,35.0581566 C249.606704,33.8567717 248.849074,33.2073744 247.983211,33.2073744 C247.117348,33.2073744 246.359718,33.8567717 246.359718,35.0581566 C246.359718,36.2703649 247.117348,36.9197622 247.983211,36.9197622 Z M247.983211,32.2982182 C249.541764,32.2982182 250.64574,33.4779566 250.64574,35.0581566 C250.64574,36.64918 249.541764,37.8289184 247.983211,37.8289184 C246.424657,37.8289184 245.320682,36.64918 245.320682,35.0581566 C245.320682,33.4779566 246.424657,32.2982182 247.983211,32.2982182 Z M252.9511,39.7229938 L251.944534,39.7229938 L251.944534,32.4605675 L252.929454,32.4605675 L252.929454,33.2723141 C253.210859,32.7527963 253.827786,32.3415113 254.672003,32.3415113 C256.230556,32.3415113 257.06395,33.5428963 257.06395,35.0581566 C257.06395,36.6058868 256.165617,37.8072718 254.639533,37.8072718 C253.83861,37.8072718 253.232506,37.4284567 252.9511,36.9630554 L252.9511,39.7229938 Z M256.024914,35.0581566 C256.024914,34.019121 255.440456,33.2398442 254.488007,33.2398442 C253.557204,33.2398442 252.940277,34.019121 252.940277,35.0581566 C252.940277,36.1296622 253.557204,36.8981156 254.488007,36.8981156 C255.429633,36.8981156 256.024914,36.1296622 256.024914,35.0581566 Z M259.36931,37.6665691 L258.362744,37.6665691 L258.362744,32.4605675 L259.33684,32.4605675 L259.33684,33.1532579 C259.661539,32.5796237 260.310936,32.3090415 260.91704,32.3090415 C261.566437,32.3090415 262.194188,32.6229168 262.475594,33.2939607 C262.886879,32.5471538 263.557923,32.3090415 264.218143,32.3090415 C265.127299,32.3090415 266.014809,32.9259689 266.014809,34.2897032 L266.014809,37.6665691 L265.008243,37.6665691 L265.008243,34.3979361 C265.008243,33.7160689 264.672721,33.2073744 263.904268,33.2073744 C263.189931,33.2073744 262.702883,33.7701854 262.702883,34.5169922 L262.702883,37.6665691 L261.685494,37.6665691 L261.685494,34.3979361 C261.685494,33.7268922 261.360795,33.2073744 260.581518,33.2073744 C259.856358,33.2073744 259.36931,33.7485388 259.36931,34.5278155 L259.36931,37.6665691 Z M268.298523,34.5278155 L271.145047,34.5278155 C271.123401,33.7810086 270.636353,33.1965511 269.716373,33.1965511 C268.861334,33.1965511 268.341816,33.8567717 268.298523,34.5278155 Z M271.296574,35.8807265 L272.17326,36.1837786 C271.881031,37.1037581 271.047638,37.8289184 269.83543,37.8289184 C268.439225,37.8289184 267.216194,36.8115293 267.216194,35.0473334 C267.216194,33.4130168 268.395932,32.2982182 269.70555,32.2982182 C271.307397,32.2982182 272.20573,33.4021936 272.20573,35.0256868 C272.20573,35.1555662 272.194906,35.2854457 272.184083,35.3503854 L268.266053,35.3503854 C268.287699,36.2811882 268.958743,36.9305855 269.83543,36.9305855 C270.679646,36.9305855 271.101754,36.4651841 271.296574,35.8807265 Z M274.521913,34.657695 L274.521913,37.6665691 L273.504524,37.6665691 L273.504524,32.4605675 L274.500267,32.4605675 L274.500267,33.2073744 C274.879082,32.5579771 275.496009,32.3090415 276.102113,32.3090415 C277.346792,32.3090415 277.963719,33.2073744 277.963719,34.3654662 L277.963719,37.6665691 L276.94633,37.6665691 L276.94633,34.5386388 C276.94633,33.8134785 276.643278,33.2290209 275.734122,33.2290209 C274.933198,33.2290209 274.521913,33.8675949 274.521913,34.657695 Z M280.950947,30.8154277 L280.950947,32.4605675 L282.076569,32.4605675 L282.076569,33.380547 L280.950947,33.380547 L280.950947,36.086369 C280.950947,36.5625937 281.145766,36.800706 281.676107,36.800706 C281.805986,36.800706 281.989982,36.7790595 282.076569,36.7574129 L282.076569,37.6232759 C281.989982,37.6557458 281.730223,37.7206855 281.383878,37.7206855 C280.496368,37.7206855 279.933557,37.1795211 279.933557,36.2378951 L279.933557,33.380547 L278.937815,33.380547 L278.937815,32.4605675 L279.21922,32.4605675 C279.782031,32.4605675 280.020144,32.1142223 280.020144,31.6596442 L280.020144,30.8154277 L280.950947,30.8154277 Z M291.135661,31.7354072 L290.183211,32.0709291 C290.096625,31.5189414 289.631224,30.7613113 288.559718,30.7613113 C287.693855,30.7613113 287.076928,31.3241222 287.076928,32.0384593 C287.076928,32.5904469 287.41245,33.0125552 288.061847,33.1532579 L289.209115,33.4021936 C290.486263,33.6835991 291.2006,34.4845224 291.2006,35.5560279 C291.2006,36.7465896 290.183211,37.8289184 288.548895,37.8289184 C286.698113,37.8289184 285.821426,36.6383567 285.680723,35.5452046 L286.698113,35.220506 C286.773876,36.0755457 287.37998,36.8656458 288.538072,36.8656458 C289.598754,36.8656458 290.118272,36.3136581 290.118272,35.6426142 C290.118272,35.0906265 289.739457,34.6144018 288.971003,34.4520525 L287.877851,34.2139402 C286.784699,33.9758278 286.005422,33.2614908 286.005422,32.1142223 C286.005422,30.9128373 287.120221,29.8305085 288.538072,29.8305085 C290.269798,29.8305085 290.962488,30.902014 291.135661,31.7354072 Z M293.809013,30.8154277 L293.809013,32.4605675 L294.934635,32.4605675 L294.934635,33.380547 L293.809013,33.380547 L293.809013,36.086369 C293.809013,36.5625937 294.003832,36.800706 294.534173,36.800706 C294.664053,36.800706 294.848049,36.7790595 294.934635,36.7574129 L294.934635,37.6232759 C294.848049,37.6557458 294.58829,37.7206855 294.241944,37.7206855 C293.354435,37.7206855 292.791624,37.1795211 292.791624,36.2378951 L292.791624,33.380547 L291.795881,33.380547 L291.795881,32.4605675 L292.077287,32.4605675 C292.640098,32.4605675 292.87821,32.1142223 292.87821,31.6596442 L292.87821,30.8154277 L293.809013,30.8154277 Z M299.718528,37.0388184 C299.437123,37.5799828 298.787725,37.8289184 298.181621,37.8289184 C296.969413,37.8289184 296.233429,36.9197622 296.233429,35.7400238 L296.233429,32.4605675 L297.250818,32.4605675 L297.250818,35.5884978 C297.250818,36.3028348 297.575517,36.9305855 298.430557,36.9305855 C299.253127,36.9305855 299.664412,36.3894211 299.664412,35.5993211 L299.664412,32.4605675 L300.681801,32.4605675 L300.681801,36.7032964 C300.681801,37.1145814 300.714271,37.4825732 300.735917,37.6665691 L299.761821,37.6665691 C299.740175,37.5475129 299.718528,37.2552841 299.718528,37.0388184 Z M302.965515,35.0473334 C302.965515,36.1188389 303.517502,36.9089389 304.491598,36.9089389 C305.422401,36.9089389 305.996035,36.0971923 305.996035,35.0256868 C305.996035,33.9541813 305.433224,33.2181977 304.502422,33.2181977 C303.571619,33.2181977 302.965515,33.9758278 302.965515,35.0473334 Z M306.006859,36.9630554 L306.006859,36.8764691 C305.757923,37.3743403 305.205935,37.8072718 304.394189,37.8072718 C302.868105,37.8072718 301.926479,36.5950636 301.926479,35.0473334 C301.926479,33.5753662 302.922221,32.3198647 304.394189,32.3198647 C305.314168,32.3198647 305.812039,32.7744428 305.985212,33.1965511 L305.985212,29.8305085 L306.991778,29.8305085 L306.991778,36.7032964 C306.991778,37.2011677 307.035071,37.5799828 307.045894,37.6665691 L306.060975,37.6665691 C306.039328,37.5475129 306.006859,37.2769307 306.006859,36.9630554 Z M309.73007,37.6665691 L308.723504,37.6665691 L308.723504,32.4605675 L309.73007,32.4605675 L309.73007,37.6665691 Z M308.496215,30.4907291 C308.496215,30.0794441 308.820913,29.7547455 309.221375,29.7547455 C309.63266,29.7547455 309.957359,30.0794441 309.957359,30.4907291 C309.957359,30.8911907 309.63266,31.2158894 309.221375,31.2158894 C308.820913,31.2158894 308.496215,30.8911907 308.496215,30.4907291 Z M313.691393,36.9197622 C314.557256,36.9197622 315.314886,36.2703649 315.314886,35.0581566 C315.314886,33.8567717 314.557256,33.2073744 313.691393,33.2073744 C312.82553,33.2073744 312.0679,33.8567717 312.0679,35.0581566 C312.0679,36.2703649 312.82553,36.9197622 313.691393,36.9197622 Z M313.691393,32.2982182 C315.249947,32.2982182 316.353922,33.4779566 316.353922,35.0581566 C316.353922,36.64918 315.249947,37.8289184 313.691393,37.8289184 C312.13284,37.8289184 311.028864,36.64918 311.028864,35.0581566 C311.028864,33.4779566 312.13284,32.2982182 313.691393,32.2982182 Z" id="Student-Led-Product" fill="#231F20"></path>
                                </g>
                            </g>
                        </g>
                    </g>
                </g>
            </g>
        </g>
    </g>
</svg>