<?xml version="1.0" encoding="UTF-8"?>
<svg width="189px" height="53px" viewBox="0 0 189 53" version="1.1" xmlns="http://www.w3.org/2000/svg" xmlns:xlink="http://www.w3.org/1999/xlink">
    <!-- Generator: Sketch 53.2 (72643) - https://sketchapp.com -->
    <title>Group 4</title>
    <desc>Created with Sketch.</desc>
    <defs>
        <polygon id="path-1" points="0 0.164033898 45.6876271 0.164033898 45.6876271 41.8064068 0 41.8064068"></polygon>
    </defs>
    <g id="Symbols" stroke="none" stroke-width="1" fill="none" fill-rule="evenodd">
        <g id="Generate-Logo---No-2nd-Text">
            <g id="Group-4">
                <g id="Group-20" transform="translate(0.000000, 0.258983)">
                    <path d="M32.5875593,28.5372881 C32.5875593,33.4023729 28.6431525,37.3461017 23.7784068,37.3461017 C18.9126441,37.3461017 14.9685763,33.4023729 14.9685763,28.5372881 C14.9685763,23.6718644 18.9126441,19.7281356 23.7784068,19.7281356 C28.6431525,19.7281356 32.5875593,23.6718644 32.5875593,28.5372881" id="Fill-1" fill="#26A9E0"></path>
                    <path d="M32.5875593,28.5372881 C32.5875593,33.4023729 28.6431525,37.3461017 23.7784068,37.3461017 C18.9126441,37.3461017 14.9685763,33.4023729 14.9685763,28.5372881 C14.9685763,23.6718644 18.9126441,19.7281356 23.7784068,19.7281356 C28.6431525,19.7281356 32.5875593,23.6718644 32.5875593,28.5372881 Z" id="Stroke-3" stroke="#26A9E0"></path>
                    <path d="M47.188339,11.7511864 C43.9269831,7.21016949 39.3764746,3.65762712 34.0734237,1.62745763 L29.3324068,15.3891525 C31.5734237,16.3362712 33.5215593,17.840678 35.0049492,19.7274576 L47.188339,11.7511864 Z" id="Fill-5" fill="#26A9E0"></path>
                    <path d="M47.188339,11.7511864 C43.9269831,7.21016949 39.3764746,3.65762712 34.0734237,1.62745763 L29.3324068,15.3891525 C31.5734237,16.3362712 33.5215593,17.840678 35.0049492,19.7274576 L47.188339,11.7511864 Z" id="Stroke-7" stroke="#26A9E0"></path>
                    <path d="M51.6947458,34.8563051 C52.7961017,29.3752881 52.2954237,23.6237627 50.1672881,18.3590169 L36.8649153,24.2664746 C37.6981356,26.5525763 37.9252542,29.0027458 37.5547458,31.3735932 L51.6947458,34.8563051 Z" id="Fill-9" fill="#26A9E0"></path>
                    <path d="M51.6947458,34.8563051 C52.7961017,29.3752881 52.2954237,23.6237627 50.1672881,18.3590169 L36.8649153,24.2664746 C37.6981356,26.5525763 37.9252542,29.0027458 37.5547458,31.3735932 L51.6947458,34.8563051 Z" id="Stroke-11" stroke="#26A9E0"></path>
                    <path d="M27.2030508,0.48579661 C21.6576271,-0.227423729 15.9559322,0.676305085 10.8528814,3.16816949 L17.680339,16.0227458 C19.9020339,15.0308814 22.3308475,14.6325763 24.7220339,14.8363051 L27.2030508,0.48579661 Z" id="Fill-13" fill="#26A9E0"></path>
                    <path d="M27.2030508,0.48579661 C21.6576271,-0.227423729 15.9559322,0.676305085 10.8528814,3.16816949 L17.680339,16.0227458 C19.9020339,15.0308814 22.3308475,14.6325763 24.7220339,14.8363051 L27.2030508,0.48579661 Z" id="Stroke-15" stroke="#26A9E0"></path>
                    <g id="Group-19" transform="translate(0.000000, 10.508475)">
                        <mask id="mask-2" fill="white">
                            <use xlink:href="#path-1"></use>
                        </mask>
                        <g id="Clip-18"></g>
                        <path d="M8.08559322,0.164033898 C3.12864407,4.52166102 -0.000169491525,10.9101356 -0.000169491525,18.0287797 C-0.000169491525,31.161322 10.6455932,41.8064068 23.7777966,41.8064068 C33.6269492,41.8064068 42.0774576,35.8182712 45.6876271,27.2843729 L36.4689831,25.0121695 C34.0035593,29.4833559 29.2442373,32.5114915 23.7777966,32.5114915 C15.7791525,32.5114915 9.29542373,26.0270847 9.29542373,18.0287797 C9.29542373,14.0603051 10.8913559,10.4647119 13.4767797,7.84911864 L8.08559322,0.164033898 Z" id="Fill-17" fill="#231F20" mask="url(#mask-2)"></path>
                    </g>
                </g>
                <g id="Group-3" transform="translate(69.000000, 14.000000)" fill="#231F20">
                    <path d="M0.294327051,19.5990168 L3.81609519,18.6598787 C4.0802278,20.2446743 5.34219471,21.389249 7.19112298,21.389249 C9.65636068,21.389249 11.0357199,20.1566301 11.0357199,17.3685637 L11.0357199,16.3120332 C10.4487585,17.2511714 9.09874739,18.1609615 7.01503458,18.1609615 C3.17043769,18.1609615 0.294327051,15.1968067 0.294327051,11.1467733 C0.294327051,7.33152449 3.05304542,4.10323703 7.01503458,4.10323703 C9.30418386,4.10323703 10.6248469,5.10107134 11.1237641,6.06955758 L11.1237641,4.36736964 L14.8803167,4.36736964 L14.8803167,17.2511714 C14.8803167,21.2131606 12.7379078,24.8229729 7.30851525,24.8229729 C3.3465261,24.8229729 0.7052,22.3577352 0.294327051,19.5990168 Z M7.69004014,14.8152818 C9.68570875,14.8152818 11.094416,13.3772265 11.094416,11.1467733 C11.094416,8.91632015 9.56831647,7.5076129 7.69004014,7.5076129 C5.75306766,7.5076129 4.22696814,8.91632015 4.22696814,11.1467733 C4.22696814,13.4065745 5.66502346,14.8152818 7.69004014,14.8152818 Z M21.6890685,9.94350253 L28.1456434,9.94350253 C28.0869473,8.5054472 27.1478091,7.09673995 24.9173559,7.09673995 C22.8923393,7.09673995 21.7771127,8.62283948 21.6890685,9.94350253 Z M28.5271683,13.7000552 L31.7848038,14.6685414 C31.0511021,17.1631272 28.7619528,19.24684 25.2108366,19.24684 C21.2488475,19.24684 17.7564274,16.4000774 17.7564274,11.5282982 C17.7564274,6.92065154 21.1608033,3.92714863 24.8586598,3.92714863 C29.3195661,3.92714863 31.9902403,6.7739112 31.9902403,11.4109059 C31.9902403,11.9685192 31.9315441,12.5554806 31.9315441,12.6141767 L21.6010243,12.6141767 C21.6890685,14.5218011 23.3032122,15.9011603 25.2401847,15.9011603 C27.0597649,15.9011603 28.0575992,14.9913702 28.5271683,13.7000552 Z M38.9750804,10.5011158 L38.9750804,18.806619 L35.0717874,18.806619 L35.0717874,4.36736964 L38.8576881,4.36736964 L38.8576881,6.15760178 C39.7381302,4.66085032 41.4696662,3.98584476 43.0251138,3.98584476 C46.605578,3.98584476 48.2490698,6.53912666 48.2490698,9.70871798 L48.2490698,18.806619 L44.3457768,18.806619 L44.3457768,10.3837235 C44.3457768,8.76957981 43.553379,7.5076129 41.6751026,7.5076129 C39.9729147,7.5076129 38.9750804,8.82827595 38.9750804,10.5011158 Z M55.0578216,9.94350253 L61.5143965,9.94350253 C61.4557003,8.5054472 60.5165622,7.09673995 58.286109,7.09673995 C56.2610923,7.09673995 55.1458658,8.62283948 55.0578216,9.94350253 Z M61.8959214,13.7000552 L65.1535569,14.6685414 C64.4198552,17.1631272 62.1307059,19.24684 58.5795897,19.24684 C54.6176005,19.24684 51.1251805,16.4000774 51.1251805,11.5282982 C51.1251805,6.92065154 54.5295563,3.92714863 58.2274129,3.92714863 C62.6883192,3.92714863 65.3589934,6.7739112 65.3589934,11.4109059 C65.3589934,11.9685192 65.3002972,12.5554806 65.3002972,12.6141767 L54.9697774,12.6141767 C55.0578216,14.5218011 56.6719653,15.9011603 58.6089378,15.9011603 C60.428518,15.9011603 61.4263523,14.9913702 61.8959214,13.7000552 Z M77.2449608,4.30867351 L77.2449608,8.24131459 C76.8047398,8.15327039 76.4232149,8.12392232 76.0710381,8.12392232 C74.0753695,8.12392232 72.3438335,9.09240856 72.3438335,12.2033037 L72.3438335,18.806619 L68.4405405,18.806619 L68.4405405,4.36736964 L72.2264412,4.36736964 L72.2264412,6.50977859 C73.1068833,4.60215419 75.1025519,4.24997737 76.3351707,4.24997737 C76.6579995,4.24997737 76.9514801,4.27932544 77.2449608,4.30867351 Z" id="gener"></path>
                    <path d="M79.2112814,14.8739779 C79.2112814,12.2913479 81.1189058,10.8532926 83.5254473,10.5011158 L87.0765635,9.97285059 C87.8983094,9.85545832 88.162442,9.44458537 88.162442,8.94566822 C88.162442,7.91848585 87.3700442,7.06739188 85.7265524,7.06739188 C84.0243645,7.06739188 83.0852263,8.15327039 82.967834,9.41523731 L79.504762,8.68153561 C79.7395466,6.42173439 81.8232594,3.92714863 85.6972043,3.92714863 C90.2755029,3.92714863 91.9776908,6.50977859 91.9776908,9.41523731 L91.9776908,16.5174697 C91.9776908,17.2805195 92.0657351,18.3077018 92.1537793,18.806619 L88.573315,18.806619 C88.4852708,18.4250941 88.4265746,17.6326963 88.4265746,17.075083 C87.6928729,18.2196576 86.3135138,19.2174919 84.1711048,19.2174919 C81.0895577,19.2174919 79.2112814,17.1337791 79.2112814,14.8739779 Z M84.9928507,16.3120332 C86.6363425,16.3120332 88.162442,15.5196354 88.162442,12.9663535 L88.162442,12.320696 L84.9048065,12.8196132 C83.9069722,12.9663535 83.1145744,13.5239668 83.1145744,14.6391934 C83.1145744,15.4902873 83.7308838,16.3120332 84.9928507,16.3120332 Z M100.634693,0.0532036787 L100.634693,4.36736964 L103.540152,4.36736964 L103.540152,7.83044164 L100.634693,7.83044164 L100.634693,13.8761436 C100.634693,15.1381105 101.221654,15.5489835 102.336881,15.5489835 C102.80645,15.5489835 103.334715,15.4902873 103.540152,15.4315912 L103.540152,18.6598787 C103.187975,18.806619 102.483621,19.0120555 101.339047,19.0120555 C98.521632,19.0120555 96.7607479,17.3392156 96.7607479,14.5511492 L96.7607479,7.83044164 L94.1487699,7.83044164 L94.1487699,4.36736964 L94.8824716,4.36736964 C96.4085711,4.36736964 97.1129247,3.36953534 97.1129247,2.07822036 L97.1129247,0.0532036787 L100.634693,0.0532036787 Z M109.555828,9.94350253 L116.012402,9.94350253 C115.953706,8.5054472 115.014568,7.09673995 112.784115,7.09673995 C110.759098,7.09673995 109.643872,8.62283948 109.555828,9.94350253 Z M116.393927,13.7000552 L119.651563,14.6685414 C118.917861,17.1631272 116.628712,19.24684 113.077596,19.24684 C109.115607,19.24684 105.623186,16.4000774 105.623186,11.5282982 C105.623186,6.92065154 109.027562,3.92714863 112.725419,3.92714863 C117.186325,3.92714863 119.856999,6.7739112 119.856999,11.4109059 C119.856999,11.9685192 119.798303,12.5554806 119.798303,12.6141767 L109.467783,12.6141767 C109.555828,14.5218011 111.169971,15.9011603 113.106944,15.9011603 C114.926524,15.9011603 115.924358,14.9913702 116.393927,13.7000552 Z" id="ate"></path>
                </g>
            </g>
        </g>
    </g>
</svg>