<?xml version="1.0" encoding="UTF-8"?>
<svg width="24px" height="20px" viewBox="0 0 24 20" version="1.1" xmlns="http://www.w3.org/2000/svg" xmlns:xlink="http://www.w3.org/1999/xlink">
    <!-- Generator: Sketch 53.2 (72643) - https://sketchapp.com -->
    <title>twitter</title>
    <desc>Created with Sketch.</desc>
    <g id="Symbols" stroke="none" stroke-width="1" fill="none" fill-rule="evenodd">
        <g id="Footer-+-Sock---HiFi" transform="translate(-1112.000000, -616.000000)" fill="#FFFFFF">
            <g id="footer-+-sock---contained">
                <g id="footer-+-sock" transform="translate(-177.000000, 0.000000)">
                    <g id="footer" transform="translate(177.000000, 448.000000)">
                        <g id="content" transform="translate(61.000000, 63.000000)">
                            <g id="social-links" transform="translate(967.000000, 90.000000)">
                                <g id="twitter" transform="translate(72.000000, 0.000000)">
                                    <g transform="translate(12.480000, 15.360000)" id="Shape">
                                        <path d="M23.04,0.101052632 C22.0371159,0.817769712 20.9267166,1.36594328 19.7515636,1.72446316 C18.4596056,0.219400102 16.3776384,-0.308392394 14.5383253,0.402872696 C12.6990123,1.11413779 11.493609,2.91316135 11.52,4.90762105 L11.52,5.96867368 C7.78193262,6.06687665 4.2435756,4.26246976 2.09454545,1.16210526 C2.09454545,1.16210526 -2.09454545,10.7115789 7.33090909,14.9557895 C5.17407978,16.4391053 2.6047316,17.182864 1.11022302e-15,17.0778947 C9.42545455,22.3831579 20.9454545,17.0778947 20.9454545,4.87578947 C20.9444901,4.58023712 20.9164425,4.28541385 20.8616727,3.99511579 C21.9305226,2.92715897 22.6847938,1.5787942 23.04,0.101052632 Z"></path>
                                    </g>
                                </g>
                            </g>
                        </g>
                    </g>
                </g>
            </g>
        </g>
    </g>
</svg>