<svg width="203" height="142" viewBox="0 0 203 142" fill="none" xmlns="http://www.w3.org/2000/svg">
<path d="M101.074 0C101.074 0 37.8554 5.8651e-05 21.9883 4.12305C13.4925 6.49685 6.49687 13.4925 4.12305 22.1133C9.39369e-05 37.9804 0 70.8398 0 70.8398C0 70.8398 9.39369e-05 103.824 4.12305 119.441C6.49687 128.062 13.3676 134.933 21.9883 137.307C37.9803 141.555 101.074 141.555 101.074 141.555C101.074 141.555 164.418 141.555 180.285 137.432C188.906 135.058 195.776 128.312 198.025 119.566C202.273 103.824 202.273 70.9648 202.273 70.9648C202.273 70.9648 202.398 37.9804 198.025 22.1133C195.776 13.4925 188.906 6.62195 180.285 4.37305C164.418 0.000199795 101.074 0 101.074 0V0ZM80.959 40.4805L133.559 70.8398L80.959 101.074V40.4805V40.4805Z" fill="white"/>
</svg>
